/* XPM */
static char *result[] = {
/* columns rows colors chars-per-pixel */
"32 32 118 2 ",
"   c #645C8F",
".  c #756E8F",
"X  c #686191",
"o  c #736E93",
"O  c #746E93",
"+  c #726D96",
"@  c #736D97",
"#  c #756F97",
"$  c #736D98",
"%  c #726C9B",
"&  c #756F98",
"*  c #757097",
"=  c #757098",
"-  c #767098",
";  c #787299",
":  c #79739F",
">  c #7A749F",
",  c #7C779D",
"<  c #7E799D",
"1  c #7A74A1",
"2  c #7C76A1",
"3  c #7B73A7",
"4  c #7A75A7",
"5  c #7C77A5",
"6  c #7F7AA2",
"7  c #7974A8",
"8  c #7D75A8",
"9  c #7D77A8",
"0  c #807B99",
"q  c #807B9D",
"w  c #807B9E",
"e  c #817C9F",
"r  c #807D9F",
"t  c #817D9F",
"y  c #827D9F",
"u  c #8B879B",
"i  c #8681A2",
"p  c #8682A2",
"a  c #8681A7",
"s  c #8985A1",
"d  c #8682A8",
"f  c #E0BBAF",
"g  c #E2BFB1",
"h  c #DED78E",
"j  c #E3DD94",
"k  c #E3C0B2",
"l  c #E4C1B2",
"z  c #E5E2BD",
"x  c #E6E3BD",
"c  c #E6E4BE",
"v  c #E6E5BE",
"b  c #E7E5BE",
"n  c #E6E5BF",
"m  c #E7E6BE",
"M  c #E8E7BF",
"N  c #E9E7BF",
"B  c #D2CCD4",
"V  c #D3CDD4",
"C  c #D3CED5",
"Z  c #D9D9DE",
"A  c #EAD7C5",
"S  c #EAD8C5",
"D  c #E8E7C4",
"F  c #EAE9C2",
"G  c #EDEAC1",
"H  c #ECEBC1",
"J  c #EDECC2",
"K  c #EEECC2",
"L  c #EEEDC2",
"P  c #EFECC3",
"I  c #EEEDC3",
"U  c #EFEEC2",
"Y  c #EFEEC3",
"T  c #EEECC4",
"R  c #F0EEC4",
"E  c #F0EFC4",
"W  c #F1EFC4",
"Q  c #F2EFC4",
"!  c #F2F1C5",
"~  c #F3F1C5",
"^  c #F3F2C5",
"/  c #F4F1C5",
"(  c #F4F3C5",
")  c #F4F3C6",
"_  c #F5F4C6",
"`  c #F6F5C6",
"'  c #F6F5C7",
"]  c #F5F4C8",
"[  c #F5F4C9",
"{  c #F6F4C9",
"}  c #DEDEE1",
"|  c #DFDFE3",
" . c #E0DFE3",
".. c #E0DFE4",
"X. c #E1E1E3",
"o. c #E1E0E4",
"O. c #E2E1E4",
"+. c #E2E1E5",
"@. c #E2E2E4",
"#. c #E3E2E4",
"$. c #E3E3E5",
"%. c #E5E5E4",
"&. c #E5E5E7",
"*. c #E6E6E7",
"=. c #E5E5E8",
"-. c #E6E6E8",
";. c #E7E7E9",
":. c #E8E7E8",
">. c #E8E8E9",
",. c #EDEDE8",
"<. c #EEEDE8",
"1. c #FFECECEC",
"2. c #EDEDEC",
"3. c #ECECED",
"4. c gray93",
"5. c #EEEEED",
"6. c #EDEDEE",
"7. c #EEEEEE",
/* pixels */
"1.1.1.1.1.1.1.1.1.1.1.1.1.1.1.1.1.1.1.1.1.1.1.1.1.1.1.1.1.1.1.1.",
"1.1.1.1.1.1.1.1.1.1.1.1.1.1.1.1.1.1.1.1.1.1.1.1.1.1.1.1.1.1.1.1.",
"1.1.1.1.1.1.1.1.1.1.1.1.1.1.1.1.1.1.1.1.1.1.1.1.1.1.1.1.1.1.1.1.",
"1.1.1.1.1.1.1.1.1.1.1.1.1.1.1.1.1.1.1.1.1.1.1.1.1.1.1.1.1.1.1.1.",
"1.1.1.1.1.1.1.1.1.1.1.1.1.1.1.1.1.1.1.1.1.1.1.1.1.1.1.1.1.1.1.1.",
"1.1.1.1.1.1.1.1.1.1.1.1.1.1.5.5.5.1.1.1.1.1.1.1.1.1.1.1.1.1.1.1.",
"1.1.1.1.1.1.1.1.1.1.1.1.1.4.-.&.-.4.1.1.1.1.1.1.1.1.1.1.1.1.1.1.",
"1.1.1.1.1.1.1.1.1.1.1.1.7.O.t + e $.7.1.1.1.1.1.1.1.1.1.1.1.1.1.",
"1.1.1.1.1.1.1.1.1.1.1.4.O.s z K c , ..7.1.1.1.1.1.1.1.1.1.1.1.1.",
"1.1.1.1.1.1.1.1.1.1.5.-.r x k l P o , $.4.1.1.1.1.1.1.1.1.1.1.1.",
"1.1.1.1.1.1.1.1.1.1.5.&.* G g f W E v w =.5.1.1.1.1.1.1.1.1.1.1.",
"1.1.1.1.1.1.1.1.1.1.5.;.; H / Q ^ ' L # -.5.1.1.1.1.1.1.1.1.1.1.",
"1.1.1.1.1.1.1.1.1.1.4.| - H _ ^ ^ ' H $ o.4.1.1.1.1.1.1.1.1.1.1.",
"1.1.1.1.1.1.1.1.1.4.>.6 X I ) ~ ! I I O % :.4.1.1.1.1.1.1.1.1.1.",
"1.1.1.1.1.1.1.1.1.1.2.Z = H ) ( J u I N @ &.5.1.1.1.1.1.1.1.1.1.",
"1.1.1.1.1.1.1.1.1.4.>.6   Y ` / ~ L ` U & &.5.1.1.1.1.1.1.1.1.1.",
"1.1.1.1.1.1.1.1.1.1.4. .y m T A S R E n w -.5.1.1.1.1.1.1.1.1.1.",
"1.1.1.1.1.1.1.1.1.1.1.7.} < a 8 3 9 5 0 #.4.1.1.1.1.1.1.1.1.1.1.",
"1.1.1.1.1.1.1.1.1.1.4.*.2 C D d 4 7 1 h <.3.1.1.1.1.1.1.1.1.1.1.",
"1.1.1.1.1.1.1.1.1.1.5.*.: V { U E F . j ,.3.1.1.1.1.1.1.1.1.1.1.",
"1.1.1.1.1.1.1.1.1.1.1.4.+.p b ] [ M q %.5.1.1.1.1.1.1.1.1.1.1.1.",
"1.1.1.1.1.1.1.1.1.1.1.1.7.X.p B B i @.6.1.1.1.1.1.1.1.1.1.1.1.1.",
"1.1.1.1.1.1.1.1.1.1.1.1.1.7.+.> > +.5.1.1.1.1.1.1.1.1.1.1.1.1.1.",
"1.1.1.1.1.1.1.1.1.1.1.1.1.1.4.*.*.4.1.1.1.1.1.1.1.1.1.1.1.1.1.1.",
"1.1.1.1.1.1.1.1.1.1.1.1.1.1.1.5.5.1.1.1.1.1.1.1.1.1.1.1.1.1.1.1.",
"1.1.1.1.1.1.1.1.1.1.1.1.1.1.1.1.1.1.1.1.1.1.1.1.1.1.1.1.1.1.1.1.",
"1.1.1.1.1.1.1.1.1.1.1.1.1.1.1.1.1.1.1.1.1.1.1.1.1.1.1.1.1.1.1.1.",
"1.1.1.1.1.1.1.1.1.1.1.1.1.1.1.1.1.1.1.1.1.1.1.1.1.1.1.1.1.1.1.1.",
"1.1.1.1.1.1.1.1.1.1.1.1.1.1.1.1.1.1.1.1.1.1.1.1.1.1.1.1.1.1.1.1.",
"1.1.1.1.1.1.1.1.1.1.1.1.1.1.1.1.1.1.1.1.1.1.1.1.1.1.1.1.1.1.1.1.",
"1.1.1.1.1.1.1.1.1.1.1.1.1.1.1.1.1.1.1.1.1.1.1.1.1.1.1.1.1.1.1.1.",
"1.1.1.1.1.1.1.1.1.1.1.1.1.1.1.1.1.1.1.1.1.1.1.1.1.1.1.1.1.1.1.1."
};
