/* XPM */
static char *result[] = {
/* columns rows colors chars-per-pixel */
"32 32 126 2 ",
"   c #52478B",
".  c #5B5196",
"X  c #655D8F",
"o  c #645D93",
"O  c #68608B",
"+  c #686191",
"@  c #6A6390",
"#  c #6A6391",
"$  c #6C6492",
"%  c #6F6997",
"&  c #6C6698",
"*  c #736E93",
"=  c #746E93",
"-  c #726D96",
";  c #736D97",
":  c #756F97",
">  c #716B99",
",  c #716B9B",
"<  c #726C98",
"1  c #736D98",
"2  c #726C9B",
"3  c #756F98",
"4  c #756E9E",
"5  c #757097",
"6  c #757098",
"7  c #767098",
"8  c #787299",
"9  c #78729A",
"0  c #79739F",
"q  c #7B759E",
"w  c #7D779C",
"e  c #7C779D",
"r  c #7D7898",
"t  c #7D789D",
"y  c #7F7A9E",
"u  c #7C77A5",
"i  c #7F7AA2",
"p  c #807A99",
"a  c #827D9B",
"s  c #807B9E",
"d  c #817C9F",
"f  c #807D9F",
"g  c #817D9F",
"h  c #807AA8",
"j  c #857DAB",
"k  c #8B879B",
"l  c #8681A7",
"z  c #8985A1",
"x  c #8A83AB",
"c  c #E0BBAF",
"v  c #E2BFB1",
"b  c #DFD990",
"n  c #E1DA90",
"m  c #DEDCBC",
"M  c #E3C0B2",
"N  c #E4C1B2",
"B  c #E5E2BD",
"V  c #E6E3BD",
"C  c #E6E4BE",
"Z  c #E6E5BE",
"A  c #E6E5BF",
"S  c #E8E7BF",
"D  c #E9E7BF",
"F  c #D3CDD4",
"G  c #D3CED6",
"H  c #D4CED6",
"J  c #D6D0D6",
"K  c #D9D9DE",
"L  c #E8D5C5",
"P  c #E9D6C4",
"I  c #E8E6C2",
"U  c #EDEAC1",
"Y  c #ECEBC1",
"T  c #EFEEC1",
"R  c #EDECC2",
"E  c #EEECC2",
"W  c #EEEDC2",
"Q  c #EFECC3",
"!  c #EEEDC3",
"~  c #EFEEC2",
"^  c #EFEEC3",
"/  c #EEECC4",
"(  c #EFEDC4",
")  c #EEEDC6",
"_  c #F0EFC4",
"`  c #F1EFC4",
"'  c #F2EFC4",
"]  c #F2F1C5",
"[  c #F3F1C5",
"{  c #F3F2C5",
"}  c #F4F1C5",
"|  c #F4F3C5",
" . c #F4F2C6",
".. c #F4F3C6",
"X. c #F5F4C6",
"o. c #F6F5C6",
"O. c #F6F5C7",
"+. c #F5F4C9",
"@. c #F7F6C9",
"#. c #DFDFE3",
"$. c #E0DFE4",
"%. c #E1E0E4",
"&. c #E1E1E4",
"*. c #E2E1E4",
"=. c #E2E2E4",
"-. c #E3E2E4",
";. c #E3E2E5",
":. c #E3E3E5",
">. c #E4E4E6",
",. c #E5E5E7",
"<. c #E6E6E7",
"1. c #E5E5E8",
"2. c #E6E6E8",
"3. c #E7E7E8",
"4. c #E7E7E9",
"5. c #E8E7E8",
"6. c #E8E8E9",
"7. c #EDECE8",
"8. c #EEEDE8",
"9. c #FFECECEC",
"0. c #EDEDEC",
"q. c #ECECED",
"w. c gray93",
"e. c #EEEEED",
"r. c #EEEEEE",
"t. c #EEEFEE",
/* pixels */
"9.9.9.9.9.9.9.9.9.9.9.9.9.9.9.9.9.9.9.9.9.9.9.9.9.9.9.9.9.9.9.9.",
"9.9.9.9.9.9.9.9.9.9.9.9.9.9.9.9.9.9.9.9.9.9.9.9.9.9.9.9.9.9.9.9.",
"9.9.9.9.9.9.9.9.9.9.9.9.9.9.9.9.9.9.9.9.9.9.9.9.9.9.9.9.9.9.9.9.",
"9.9.9.9.9.9.9.9.9.9.9.9.9.9.9.9.9.9.9.9.9.9.9.9.9.9.9.9.9.9.9.9.",
"9.9.9.9.9.9.9.9.9.9.9.9.9.9.9.9.9.9.9.9.9.9.9.9.9.9.9.9.9.9.9.9.",
"9.9.9.9.9.9.9.9.9.9.9.9.9.9.9.9.9.9.9.9.9.9.9.9.9.9.9.9.9.9.9.9.",
"9.9.9.9.9.9.9.9.9.9.9.9.9.9.9.e.e.e.9.9.9.9.9.9.9.9.9.9.9.9.9.9.",
"9.9.9.9.9.9.9.9.9.9.9.9.9.9.w.2.,.2.w.9.9.9.9.9.9.9.9.9.9.9.9.9.",
"9.9.9.9.9.9.9.9.9.9.9.9.9.r.:.d - g *.r.9.9.9.9.9.9.9.9.9.9.9.9.",
"9.9.9.9.9.9.9.9.9.9.9.9.r.$.e C E B z *.w.9.9.9.9.9.9.9.9.9.9.9.",
"9.9.9.9.9.9.9.9.9.9.9.w.:.e * Q N M V f 2.e.9.9.9.9.9.9.9.9.9.9.",
"9.9.9.9.9.9.9.9.9.9.e.1.s Z _ ` c v U 5 ,.e.9.9.9.9.9.9.9.9.9.9.",
"9.9.9.9.9.9.9.9.9.9.e.2.: W O.{ ' } Y 8 4.e.9.9.9.9.9.9.9.9.9.9.",
"9.9.9.9.9.9.9.9.9.9.w.%.1 Y O.{ { X.Y 7 #.w.9.9.9.9.9.9.9.9.9.9.",
"9.9.9.9.9.9.9.9.9.w.5.2 = ! ! ] [ ..! + i 6.w.9.9.9.9.9.9.9.9.9.",
"9.9.9.9.9.9.9.9.9.e.,.; D ! k R | ..Y 6 K 0.9.9.9.9.9.9.9.9.9.9.",
"9.9.9.9.9.9.9.9.9.e.,.3 ~ o.W  . .o.^ X i 6.w.9.9.9.9.9.9.9.9.9.",
"9.9.9.9.9.9.9.9.9.e.2.s A _ ( P L / S y #.w.9.9.9.9.9.9.9.9.9.9.",
"9.9.9.9.9.9.9.9.9.9.w.-.p u h j x l 9 =.t.9.9.9.9.9.9.9.9.9.9.9.",
"9.9.9.9.9.9.9.9.9.9.q.8.b 4 . G ) Z % 6.e.9.9.9.9.9.9.9.9.9.9.9.",
"9.9.9.9.9.9.9.9.9.9.q.7.n O < J @.T a &.w.9.9.9.9.9.9.9.9.9.9.9.",
"9.9.9.9.9.9.9.9.9.9.w.3.$ @ m r C +.I t 2.e.9.9.9.9.9.9.9.9.9.9.",
"9.9.9.9.9.9.9.9.9.9.w.3.,   # o w H F q <.e.9.9.9.9.9.9.9.9.9.9.",
"9.9.9.9.9.9.9.9.9.9.9.w.:.> & >.;.0 0 :.w.9.9.9.9.9.9.9.9.9.9.9.",
"9.9.9.9.9.9.9.9.9.9.9.9.w.3.3.w.w.<.<.w.9.9.9.9.9.9.9.9.9.9.9.9.",
"9.9.9.9.9.9.9.9.9.9.9.9.9.w.w.9.9.e.e.9.9.9.9.9.9.9.9.9.9.9.9.9.",
"9.9.9.9.9.9.9.9.9.9.9.9.9.9.9.9.9.9.9.9.9.9.9.9.9.9.9.9.9.9.9.9.",
"9.9.9.9.9.9.9.9.9.9.9.9.9.9.9.9.9.9.9.9.9.9.9.9.9.9.9.9.9.9.9.9.",
"9.9.9.9.9.9.9.9.9.9.9.9.9.9.9.9.9.9.9.9.9.9.9.9.9.9.9.9.9.9.9.9.",
"9.9.9.9.9.9.9.9.9.9.9.9.9.9.9.9.9.9.9.9.9.9.9.9.9.9.9.9.9.9.9.9.",
"9.9.9.9.9.9.9.9.9.9.9.9.9.9.9.9.9.9.9.9.9.9.9.9.9.9.9.9.9.9.9.9.",
"9.9.9.9.9.9.9.9.9.9.9.9.9.9.9.9.9.9.9.9.9.9.9.9.9.9.9.9.9.9.9.9."
};
