/* XPM */
static char *result[] = {
/* columns rows colors chars-per-pixel */
"32 32 140 2 ",
"   c #655D8F",
".  c #615590",
"X  c #635D90",
"o  c #665E94",
"O  c #676094",
"+  c #686191",
"@  c #696191",
"#  c #6B6397",
"$  c #6E6898",
"%  c #716796",
"&  c #726796",
"*  c #716897",
"=  c #726D96",
"-  c #776E97",
";  c #706998",
":  c #706999",
">  c #756B98",
",  c #756D98",
"<  c #757098",
"1  c #757099",
"2  c #777199",
"3  c #76719C",
"4  c #797398",
"5  c #797499",
"6  c #7A749F",
"7  c #7A759F",
"8  c #7E779D",
"9  c #7D7899",
"0  c #7C789C",
"q  c #7E799E",
"w  c #7B75A0",
"e  c #7D77A1",
"r  c #7B75A6",
"t  c #7C76A6",
"y  c #7C77A7",
"u  c #7F7AA2",
"i  c #7D78A7",
"p  c #7D78A8",
"a  c #817D96",
"s  c #807B9E",
"d  c #817C9F",
"f  c #817E9F",
"g  c #817BA5",
"h  c #8F8C9C",
"j  c #8883A7",
"k  c #8A85A4",
"l  c #8480A9",
"z  c #8581AA",
"x  c #8985AA",
"c  c #D9B2AB",
"v  c #DBB5AC",
"b  c #E3BFB0",
"n  c #E0D98C",
"m  c #ECE68F",
"M  c #EDE793",
"N  c #E6C3B3",
"B  c #E1CEBF",
"V  c #E5E2BC",
"C  c #E6E4BD",
"Z  c #E6E5BE",
"A  c #E7E6BE",
"S  c #E8E6BB",
"D  c #EBEABE",
"F  c #EDEBBE",
"G  c #CCC7D0",
"H  c #D1CBD4",
"J  c #D3CDD4",
"K  c #D4CED5",
"L  c #D4CED6",
"P  c #D4CED8",
"I  c #D9D4D9",
"U  c #DCD6DC",
"Y  c #DDD7DD",
"T  c #DCD6DF",
"R  c #DDD8DA",
"E  c #D9D8DE",
"W  c #E3D0C1",
"Q  c #EBD9C5",
"!  c #EDDBC6",
"~  c #E8E6C2",
"^  c #EBE8C0",
"/  c #EAE9C0",
"(  c #E9E8C3",
")  c #EAE9C2",
"_  c #ECEBC2",
"`  c #EEEDC0",
"'  c #EDECC2",
"]  c #EDECC3",
"[  c #EEECC2",
"{  c #EFECC2",
"}  c #EEECC3",
"|  c #EFECC3",
" . c #EEEDC3",
".. c #EEEEC3",
"X. c #EDECC4",
"o. c #EEECC4",
"O. c #EEEDC5",
"+. c #EFEEC4",
"@. c #F0EEC2",
"#. c #F0EDC4",
"$. c #F0EDC5",
"%. c #F0EEC4",
"&. c #F0EFC4",
"*. c #F0EEC6",
"=. c #F2F1C5",
"-. c #F3F2C4",
";. c #F3F2C5",
":. c #F1F0C6",
">. c #F2F0C6",
",. c #F2F1C6",
"<. c #F4F1C4",
"1. c #F4F3C5",
"2. c #F4F3C6",
"3. c #F5F4C5",
"4. c #F7F6C7",
"5. c #F6F4C9",
"6. c #DFDFE3",
"7. c #E0DFE3",
"8. c #E0E0E3",
"9. c #E1E1E4",
"0. c #E1E1E5",
"q. c #E3E3E5",
"w. c #E4E3E6",
"e. c #E4E4E6",
"r. c #E5E5E7",
"t. c #E6E6E7",
"y. c #E6E5E8",
"u. c #E5E6E8",
"i. c #E6E6E8",
"p. c #E7E7E8",
"a. c #E7E7E9",
"s. c #E8E7E9",
"d. c #E8E8E9",
"f. c #FFECECEC",
"g. c #EDEDEC",
"h. c gray93",
"j. c #EDEEED",
"k. c #EEEEED",
"l. c #EEEEEE",
"z. c #EFEFEE",
/* pixels */
"f.f.f.f.f.f.f.f.f.f.f.f.f.f.f.f.f.f.f.f.f.f.f.f.f.f.f.f.f.f.f.f.",
"f.f.f.f.f.f.f.f.f.f.f.f.f.f.f.f.f.f.f.f.f.f.f.f.f.f.f.f.f.f.f.f.",
"f.f.f.f.f.f.f.f.f.f.f.f.f.f.f.f.f.f.f.f.f.f.f.f.f.f.f.f.f.f.f.f.",
"f.f.f.f.f.f.f.f.f.f.f.f.f.f.f.f.f.f.f.f.f.f.f.f.f.f.f.f.f.f.f.f.",
"f.f.f.f.f.f.f.f.f.f.f.f.f.f.f.f.f.f.f.f.f.f.f.f.f.f.f.f.f.f.f.f.",
"f.f.f.f.f.f.f.f.f.f.f.k.k.k.f.f.f.f.k.k.k.f.f.f.f.f.f.f.f.f.f.f.",
"f.f.f.f.f.f.f.f.f.f.h.i.r.i.h.f.f.h.i.r.i.h.f.f.f.f.f.f.f.f.f.f.",
"f.f.f.f.f.f.f.f.f.h.q.f = d q.l.l.q.d = f q.h.f.f.f.f.f.f.f.f.f.",
"f.f.f.f.f.f.f.f.k.i.s V { C 0 9.9.0 C { V s i.k.f.f.f.f.f.f.f.f.",
"f.f.f.f.f.f.f.f.k.u.% v N [ = : : = [ N v % u.k.f.f.f.f.f.f.f.f.",
"f.f.f.f.f.f.f.f.k.u.> c b $.I P P I $.b c > u.k.f.f.f.f.f.f.f.f.",
"f.f.f.f.f.f.f.f.k.a.2 ^ <.:.Y T T Y :.<.^ 2 a.k.f.f.f.f.f.f.f.f.",
"f.f.f.f.f.f.f.f.h.6.< ' 4.>.R U U R >.4.' < 6.h.f.f.f.f.f.f.f.f.",
"f.f.f.f.f.f.f.h.d.u + '  .=.,.>.>.,.=. .' + u d.h.f.f.f.f.f.f.f.",
"f.f.f.f.f.f.f.f.g.E 4 Z h _ 3.-.-.3._ h Z 5 E g.f.f.f.f.f.f.f.f.",
"f.f.f.f.f.f.f.h.d.u @ | %.;.2.1.2.2.;.#.}   u d.h.f.f.f.f.f.f.f.",
"f.f.f.f.f.f.f.f.h.6., B Q } +.X.] ..o.! W 8 8.h.f.f.f.f.f.f.f.f.",
"f.f.f.f.f.f.f.f.j.d.O & - t i j x p r . * e.z.f.f.f.f.f.f.f.f.f.",
"f.f.f.f.f.f.f.f.h.t.w G ( l g n S z y X $ w.h.f.f.f.f.f.f.f.f.f.",
"f.f.f.f.f.f.f.f.f.h.0.k / &.` m M @.) *.L e t.k.f.f.f.f.f.f.f.f.",
"f.f.f.f.f.f.f.f.f.f.l.7.9 O.5.D F A a ~ J # t.k.f.f.f.f.f.f.f.f.",
"f.f.f.f.f.f.f.f.f.f.h.s.7 H K q 1 1 o 1 ; 3 p.h.f.f.f.f.f.f.f.f.",
"f.f.f.f.f.f.f.f.f.f.f.g.q.6 6 9.i.r.p.y.t.p.f.f.f.f.f.f.f.f.f.f.",
"f.f.f.f.f.f.f.f.f.f.f.f.h.t.t.h.k.k.h.k.k.h.f.f.f.f.f.f.f.f.f.f.",
"f.f.f.f.f.f.f.f.f.f.f.f.f.k.k.f.f.f.f.f.f.f.f.f.f.f.f.f.f.f.f.f.",
"f.f.f.f.f.f.f.f.f.f.f.f.f.f.f.f.f.f.f.f.f.f.f.f.f.f.f.f.f.f.f.f.",
"f.f.f.f.f.f.f.f.f.f.f.f.f.f.f.f.f.f.f.f.f.f.f.f.f.f.f.f.f.f.f.f.",
"f.f.f.f.f.f.f.f.f.f.f.f.f.f.f.f.f.f.f.f.f.f.f.f.f.f.f.f.f.f.f.f.",
"f.f.f.f.f.f.f.f.f.f.f.f.f.f.f.f.f.f.f.f.f.f.f.f.f.f.f.f.f.f.f.f.",
"f.f.f.f.f.f.f.f.f.f.f.f.f.f.f.f.f.f.f.f.f.f.f.f.f.f.f.f.f.f.f.f.",
"f.f.f.f.f.f.f.f.f.f.f.f.f.f.f.f.f.f.f.f.f.f.f.f.f.f.f.f.f.f.f.f.",
"f.f.f.f.f.f.f.f.f.f.f.f.f.f.f.f.f.f.f.f.f.f.f.f.f.f.f.f.f.f.f.f."
};
