/* XPM */
static char *result[] = {
/* columns rows colors chars-per-pixel */
"32 32 117 2 ",
"   c #645C8F",
".  c #655D90",
"X  c #746E93",
"o  c #716B96",
"O  c #726D96",
"+  c #736D97",
"@  c #746E96",
"#  c #756F97",
"$  c #736D98",
"%  c #726C9B",
"&  c #756F98",
"*  c #787291",
"=  c #767098",
"-  c #7B769B",
";  c #79739F",
":  c #7A749F",
">  c #7F7A9A",
",  c #7D799D",
"<  c #7E799D",
"1  c #7A73A1",
"2  c #7C76A1",
"3  c #7B73A7",
"4  c #7A76A7",
"5  c #7C77A5",
"6  c #7F7AA2",
"7  c #7A75A8",
"8  c #7D75A8",
"9  c #7D77A8",
"0  c #807B99",
"q  c #807B9E",
"w  c #827D9C",
"e  c #817C9E",
"r  c #817C9F",
"t  c #817D9F",
"y  c #827D9F",
"u  c #827E9F",
"i  c #817DA4",
"p  c #8B879B",
"a  c #8782A2",
"s  c #8681A7",
"d  c #8984A0",
"f  c #8682A8",
"g  c #E0BCB0",
"h  c #E2BEB1",
"j  c #E2BFB1",
"k  c #DED78D",
"l  c #E4DD95",
"z  c #E4C1B2",
"x  c #E5E2BD",
"c  c #E7E4BD",
"v  c #E6E5BE",
"b  c #E6E5BF",
"n  c #E7E6BE",
"m  c #E7E6BF",
"M  c #E8E6BF",
"N  c #E9E7BF",
"B  c #D2CDD4",
"V  c #D3CDD5",
"C  c #D4CFD6",
"Z  c #D9D8DE",
"A  c #DBDADF",
"S  c #EAD7C5",
"D  c #EAD8C5",
"F  c #E8E7C1",
"G  c #E9E7C4",
"H  c #ECE9C0",
"J  c #ECEBC1",
"K  c #EEEBC1",
"L  c #EDECC2",
"P  c #EEEDC2",
"I  c #EEEDC3",
"U  c #EFEDC3",
"Y  c #EFEEC2",
"T  c #EFEEC3",
"R  c #EEECC4",
"E  c #F0EEC4",
"W  c #F0EFC4",
"Q  c #F2EFC4",
"!  c #F2F1C5",
"~  c #F3F1C5",
"^  c #F3F2C5",
"/  c #F4F1C5",
"(  c #F4F3C5",
")  c #F4F3C6",
"_  c #F4F4C6",
"`  c #F5F4C6",
"'  c #F6F5C6",
"]  c #F6F5C7",
"[  c #F4F3C8",
"{  c #DEDEE1",
"}  c #E0DFE3",
"|  c #E1E0E4",
" . c #E1E1E4",
".. c #E2E1E4",
"X. c #E2E1E5",
"o. c #E2E2E4",
"O. c #E3E2E4",
"+. c #E2E2E5",
"@. c #E3E3E5",
"#. c #E5E4E4",
"$. c #E5E5E7",
"%. c #E6E6E7",
"&. c #E5E5E8",
"*. c #E6E5E8",
"=. c #E6E6E8",
"-. c #E6E6E9",
";. c #E7E7E9",
":. c #E8E7E8",
">. c #E8E8E9",
",. c #EDEDE8",
"<. c #EEEDE8",
"1. c #FFECECEC",
"2. c #EDEDEC",
"3. c #ECECED",
"4. c gray93",
"5. c #EEEEED",
"6. c #EEEEEE",
/* pixels */
"1.1.1.1.1.1.1.1.1.1.1.1.1.1.1.1.1.1.1.1.1.1.1.1.1.1.1.1.1.1.1.1.",
"1.1.1.1.1.1.1.1.1.1.1.1.1.1.1.1.1.1.1.1.1.1.1.1.1.1.1.1.1.1.1.1.",
"1.1.1.1.1.1.1.1.1.1.1.1.1.1.1.1.1.1.1.1.1.1.1.1.1.1.1.1.1.1.1.1.",
"1.1.1.1.1.1.1.1.1.1.1.1.1.1.1.1.1.1.1.1.1.1.1.1.1.1.1.1.1.1.1.1.",
"1.1.1.1.1.1.1.1.1.1.1.1.1.1.1.1.1.1.1.1.1.1.1.1.1.1.1.1.1.1.1.1.",
"1.1.1.1.1.1.1.1.1.1.1.1.1.1.1.1.1.1.1.1.1.1.1.1.1.1.1.1.1.1.1.1.",
"1.1.1.1.1.1.1.1.1.1.1.1.1.1.1.1.1.1.1.1.1.1.1.1.1.1.1.1.1.1.1.1.",
"1.1.1.1.1.1.1.1.1.1.1.1.1.1.1.1.1.5.5.5.1.1.1.1.1.1.1.1.1.1.1.1.",
"1.1.1.1.1.1.1.1.1.1.1.1.1.1.5.5.4.=.$.=.4.1.1.1.1.1.1.1.1.1.1.1.",
"1.1.1.1.1.1.1.1.1.1.1.1.1.4.*.=. .r O t ..6.1.1.1.1.1.1.1.1.1.1.",
"1.1.1.1.1.1.1.1.1.1.1.1.4.@.e o w m K x d +.4.1.1.1.1.1.1.1.1.1.",
"1.1.1.1.1.1.1.1.1.1.1.5.&.q v P L ~ j z c , *.5.1.1.1.1.1.1.1.1.",
"1.1.1.1.1.1.1.1.1.1.1.5.=.# P ] _ Q g h M u *.5.1.1.1.1.1.1.1.1.",
"1.1.1.1.1.1.1.1.1.1.1.4.| $ J ] ! ~ / H > A 2.1.1.1.1.1.1.1.1.1.",
"1.1.1.1.1.1.1.1.1.1.4.:.% X I I ! ^ ` I . i >.4.1.1.1.1.1.1.1.1.",
"1.1.1.1.1.1.1.1.1.1.5.$.+ N I p L ( ) J = Z 2.1.1.1.1.1.1.1.1.1.",
"1.1.1.1.1.1.1.1.1.1.5.$.& Y ' P ~ / ' T   6 >.4.1.1.1.1.1.1.1.1.",
"1.1.1.1.1.1.1.1.1.1.5.=.q b W E D S R n y } 4.1.1.1.1.1.1.1.1.1.",
"1.1.1.1.1.1.1.1.1.1.1.4.O.0 5 9 3 8 s < { 6.1.1.1.1.1.1.1.1.1.1.",
"1.1.1.1.1.1.1.1.1.1.1.3.<.k 1 7 4 f G V 2 %.4.1.1.1.1.1.1.1.1.1.",
"1.1.1.1.1.1.1.1.1.1.1.3.,.l * F W U [ C ; %.5.1.1.1.1.1.1.1.1.1.",
"1.1.1.1.1.1.1.1.1.1.1.1.5.#.@ Y ' ' P -  .4.1.1.1.1.1.1.1.1.1.1.",
"1.1.1.1.1.1.1.1.1.1.1.1.5.-.q v [ [ v < ;.5.1.1.1.1.1.1.1.1.1.1.",
"1.1.1.1.1.1.1.1.1.1.1.1.1.4.o.a B B a o.4.1.1.1.1.1.1.1.1.1.1.1.",
"1.1.1.1.1.1.1.1.1.1.1.1.1.1.6.X.: : X.6.1.1.1.1.1.1.1.1.1.1.1.1.",
"1.1.1.1.1.1.1.1.1.1.1.1.1.1.1.4.%.%.4.1.1.1.1.1.1.1.1.1.1.1.1.1.",
"1.1.1.1.1.1.1.1.1.1.1.1.1.1.1.1.5.5.1.1.1.1.1.1.1.1.1.1.1.1.1.1.",
"1.1.1.1.1.1.1.1.1.1.1.1.1.1.1.1.1.1.1.1.1.1.1.1.1.1.1.1.1.1.1.1.",
"1.1.1.1.1.1.1.1.1.1.1.1.1.1.1.1.1.1.1.1.1.1.1.1.1.1.1.1.1.1.1.1.",
"1.1.1.1.1.1.1.1.1.1.1.1.1.1.1.1.1.1.1.1.1.1.1.1.1.1.1.1.1.1.1.1.",
"1.1.1.1.1.1.1.1.1.1.1.1.1.1.1.1.1.1.1.1.1.1.1.1.1.1.1.1.1.1.1.1.",
"1.1.1.1.1.1.1.1.1.1.1.1.1.1.1.1.1.1.1.1.1.1.1.1.1.1.1.1.1.1.1.1."
};
