/* XPM */
static char *result[] = {
/* columns rows colors chars-per-pixel */
"32 32 113 2 ",
"   c #655D8F",
".  c #625B90",
"X  c #635B90",
"o  c #665F93",
"O  c #665F95",
"+  c #676093",
"@  c #676094",
"#  c #686191",
"$  c #6B6397",
"%  c #6E6798",
"&  c #6F689A",
"*  c #716B95",
"=  c #716A96",
"-  c #726C96",
";  c #736C96",
":  c #746E97",
">  c #746F97",
",  c #706998",
"<  c #787397",
"1  c #757098",
"2  c #757099",
"3  c #767098",
"4  c #777199",
"5  c #777299",
"6  c #76719C",
"7  c #79749A",
"8  c #79739F",
"9  c #7A749F",
"0  c #7A759F",
"q  c #7E789A",
"w  c #7D789C",
"e  c #7F7A9D",
"r  c #6861A2",
"t  c #6C65A3",
"y  c #7B75A0",
"u  c #7D77A1",
"i  c #7B76A6",
"p  c #7C76A6",
"a  c #7C77A6",
"s  c #7F7AA2",
"d  c #7E79A7",
"f  c #807B96",
"g  c #827D98",
"h  c #807B9E",
"j  c #817C9F",
"k  c #807BA8",
"l  c #85809A",
"z  c #8A85A4",
"x  c #8681A8",
"c  c #E1E0BC",
"v  c #E4E3BE",
"b  c #E6E5BD",
"n  c #E6E5BE",
"m  c #E8E7BF",
"M  c #CCC6D0",
"N  c #D1CBD4",
"B  c #D3CDD4",
"V  c #D4CED5",
"C  c #D5D0D6",
"Z  c #D6D0D7",
"A  c #DAD4D8",
"S  c #D9D9DE",
"D  c #E8E7C2",
"F  c #EAE9C1",
"G  c #EBEAC1",
"H  c #E9E8C3",
"J  c #ECEBC1",
"K  c #EDECC2",
"L  c #EEECC2",
"P  c #EEEDC3",
"I  c #EFEEC2",
"U  c #EFEEC3",
"Y  c #EEECC4",
"T  c #EFEEC4",
"R  c #F0EEC3",
"E  c #F0EFC4",
"W  c #F0EFC6",
"Q  c #F2F1C5",
"!  c #F3F2C4",
"~  c #F3F2C5",
"^  c #F1F0C6",
"/  c #F1F0C7",
"(  c #F3F2C7",
")  c #F4F3C5",
"_  c #F4F3C6",
"`  c #F5F4C5",
"'  c #F5F4C6",
"]  c #F6F5C6",
"[  c #F6F5C7",
"{  c #F3F2C8",
"}  c #F8F7C8",
"|  c #DFDFE3",
" . c #E0DFE3",
".. c #E1E1E4",
"X. c #E1E1E5",
"o. c #E3E3E5",
"O. c #E4E3E6",
"+. c #E4E4E6",
"@. c #E5E5E7",
"#. c #E6E6E7",
"$. c #E6E5E8",
"%. c #E6E6E8",
"&. c #E7E7E8",
"*. c #E7E7E9",
"=. c #E8E7E9",
"-. c #E8E8E9",
";. c #FFECECEC",
":. c #EDEDEC",
">. c gray93",
",. c #EDEEED",
"<. c #EEEEED",
"1. c #EEEEEE",
"2. c #EFEFEE",
/* pixels */
";.;.;.;.;.;.;.;.;.;.;.;.;.;.;.;.;.;.;.;.;.;.;.;.;.;.;.;.;.;.;.;.",
";.;.;.;.;.;.;.;.;.;.;.;.;.;.;.;.;.;.;.;.;.;.;.;.;.;.;.;.;.;.;.;.",
";.;.;.;.;.;.;.;.;.;.;.;.;.;.;.;.;.;.;.;.;.;.;.;.;.;.;.;.;.;.;.;.",
";.;.;.;.;.;.;.;.;.;.;.;.;.;.;.;.;.;.;.;.;.;.;.;.;.;.;.;.;.;.;.;.",
";.;.;.;.;.;.;.;.;.;.;.;.;.;.;.;.;.;.;.;.;.;.;.;.;.;.;.;.;.;.;.;.",
";.;.;.;.;.;.;.;.;.;.;.;.;.;.;.;.;.;.;.;.;.;.;.;.;.;.;.;.;.;.;.;.",
";.;.;.;.;.;.;.;.;.;.;.;.<.<.<.;.;.;.;.<.<.<.;.;.;.;.;.;.;.;.;.;.",
";.;.;.;.;.;.;.;.;.;.;.>.%.@.%.>.;.;.>.%.@.%.>.;.;.;.;.;.;.;.;.;.",
";.;.;.;.;.;.;.;.;.;.>.o.j * j o.1.1.o.j * j o.>.;.;.;.;.;.;.;.;.",
";.;.;.;.;.;.;.;.;.<.%.h n R n w ....w n R n h %.<.;.;.;.;.;.;.;.",
";.;.;.;.;.;.;.;.;.<.@.: L } U = & & = U } L : @.<.;.;.;.;.;.;.;.",
";.;.;.;.;.;.;.;.;.<.@.5 J ` ^ A Z Z A ^ ` J 5 @.<.;.;.;.;.;.;.;.",
";.;.;.;.;.;.;.;.;.<.*.4 J ' ~ ( { { ( ~ ' J 4 *.<.;.;.;.;.;.;.;.",
";.;.;.;.;.;.;.;.;.>.| 3 J ' ~ ! ! ! ! ~ ' J 3 | >.;.;.;.;.;.;.;.",
";.;.;.;.;.;.;.;.>.-.s # P _ ~ ~ ~ ~ ~ ~ _ P # s -.>.;.;.;.;.;.;.",
";.;.;.;.;.;.;.;.;.:.S > J _ Q ~ ~ ~ ~ Q _ J 1 S :.;.;.;.;.;.;.;.",
";.;.;.;.;.;.;.;.>.-.s # U [ ) ) ) ) ) ) ] U   s -.>.;.;.;.;.;.;.",
";.;.;.;.;.;.;.;.;.>.| 1 b P P P T T P P E m e | >.;.;.;.;.;.;.;.",
";.;.;.;.;.;.;.;.;.,.-.@ ; < a k i i k p X - +.2.;.;.;.;.;.;.;.;.",
";.;.;.;.;.;.;.;.;.>.#.y M H x r + o t d . % O.>.;.;.;.;.;.;.;.;.",
";.;.;.;.;.;.;.;.;.;.>.X.z J F g G G l v / V u #.<.;.;.;.;.;.;.;.",
";.;.;.;.;.;.;.;.;.;.;.1. .q Y W K I c f D B $ #.<.;.;.;.;.;.;.;.",
";.;.;.;.;.;.;.;.;.;.;.>.=.0 N C w : 7 O 2 , 6 &.>.;.;.;.;.;.;.;.",
";.;.;.;.;.;.;.;.;.;.;.;.:.o.9 8 ..%.@.&.$.#.&.;.;.;.;.;.;.;.;.;.",
";.;.;.;.;.;.;.;.;.;.;.;.;.>.#.#.>.<.<.>.<.<.>.;.;.;.;.;.;.;.;.;.",
";.;.;.;.;.;.;.;.;.;.;.;.;.;.<.<.;.;.;.;.;.;.;.;.;.;.;.;.;.;.;.;.",
";.;.;.;.;.;.;.;.;.;.;.;.;.;.;.;.;.;.;.;.;.;.;.;.;.;.;.;.;.;.;.;.",
";.;.;.;.;.;.;.;.;.;.;.;.;.;.;.;.;.;.;.;.;.;.;.;.;.;.;.;.;.;.;.;.",
";.;.;.;.;.;.;.;.;.;.;.;.;.;.;.;.;.;.;.;.;.;.;.;.;.;.;.;.;.;.;.;.",
";.;.;.;.;.;.;.;.;.;.;.;.;.;.;.;.;.;.;.;.;.;.;.;.;.;.;.;.;.;.;.;.",
";.;.;.;.;.;.;.;.;.;.;.;.;.;.;.;.;.;.;.;.;.;.;.;.;.;.;.;.;.;.;.;.",
";.;.;.;.;.;.;.;.;.;.;.;.;.;.;.;.;.;.;.;.;.;.;.;.;.;.;.;.;.;.;.;."
};
