/* XPM */
static char *result[] = {
/* columns rows colors chars-per-pixel */
"32 32 125 2 ",
"   c #4C418A",
".  c #635B8F",
"X  c #645C8F",
"o  c #686191",
"O  c #6B6497",
"+  c #736D93",
"@  c #736E93",
"#  c #746E93",
"$  c #726D96",
"%  c #736D97",
"&  c #756F97",
"*  c #716B99",
"=  c #716B9A",
"-  c #736D98",
";  c #716C9A",
":  c #726C9B",
">  c #756F98",
",  c #757097",
"<  c #7C7697",
"1  c #757098",
"2  c #767098",
"3  c #787299",
"4  c #79739E",
"5  c #7A749F",
"6  c #7D779C",
"7  c #7C779D",
"8  c #7E799D",
"9  c #7670A0",
"0  c #7B75A0",
"q  c #7C76A0",
"w  c #7D77A1",
"e  c #7B73A7",
"r  c #7A75A7",
"t  c #7F7AA2",
"y  c #7D78A6",
"u  c #7974A8",
"i  c #7D75A8",
"p  c #7D77A8",
"a  c #827C93",
"s  c #807A99",
"d  c #807B9E",
"f  c #817C9F",
"g  c #807D9F",
"h  c #817D9F",
"j  c #827D9F",
"k  c #8B879B",
"l  c #8580A7",
"z  c #8985A1",
"x  c #8682A8",
"c  c #E0BBAF",
"v  c #E2BFB1",
"b  c #DFD88F",
"n  c #E0D98F",
"m  c #E3C0B2",
"M  c #E4C1B2",
"N  c #E5E2BD",
"B  c #E6E3BD",
"V  c #E6E4BE",
"C  c #E6E5BE",
"Z  c #E6E5BF",
"A  c #E7E6BE",
"S  c #E9E7BF",
"D  c #D3CDD4",
"F  c #D3CDD5",
"G  c #D4CED5",
"H  c #D9D9DE",
"J  c #EAD7C5",
"K  c #EAD8C5",
"L  c #E8E6C1",
"P  c #E9E8C1",
"I  c #EBE9C1",
"U  c #EDEAC1",
"Y  c #ECEBC1",
"T  c #EDECC2",
"R  c #EEECC2",
"E  c #EEEDC2",
"W  c #EFECC3",
"Q  c #EEEDC3",
"!  c #EFEEC2",
"~  c #EFEEC3",
"^  c #EAE9C5",
"/  c #EEECC4",
"(  c #F0EFC3",
")  c #F0EEC4",
"_  c #F0EFC4",
"`  c #F1EFC4",
"'  c #F2EFC4",
"]  c #F0EEC6",
"[  c #F2F1C5",
"{  c #F3F1C5",
"}  c #F3F2C5",
"|  c #F4F1C5",
" . c #F4F3C5",
".. c #F4F3C6",
"X. c #F5F4C6",
"o. c #F6F5C6",
"O. c #F6F5C7",
"+. c #F5F4C8",
"@. c #DDDCE1",
"#. c #DEDEE1",
"$. c #DFDFE3",
"%. c #E0DFE3",
"&. c #E0DFE4",
"*. c #E1E0E4",
"=. c #E2E1E4",
"-. c #E3E2E4",
";. c #E3E3E5",
":. c #E5E5E7",
">. c #E6E5E7",
",. c #E6E6E7",
"<. c #E5E5E8",
"1. c #E6E6E8",
"2. c #E7E7E8",
"3. c #E7E7E9",
"4. c #E8E7E8",
"5. c gray91",
"6. c #E8E8E9",
"7. c #EDECE8",
"8. c #EEEEE9",
"9. c #FFECECEC",
"0. c #EDEDEC",
"q. c #ECECED",
"w. c gray93",
"e. c #EEEEED",
"r. c #EEEEEE",
/* pixels */
"9.9.9.9.9.9.9.9.9.9.9.9.9.9.9.9.9.9.9.9.9.9.9.9.9.9.9.9.9.9.9.9.",
"9.9.9.9.9.9.9.9.9.9.9.9.9.9.9.9.9.9.9.9.9.9.9.9.9.9.9.9.9.9.9.9.",
"9.9.9.9.9.9.9.9.9.9.9.9.9.9.9.9.9.9.9.9.9.9.9.9.9.9.9.9.9.9.9.9.",
"9.9.9.9.9.9.9.9.9.9.9.9.9.9.9.9.9.9.9.9.9.9.9.9.9.9.9.9.9.9.9.9.",
"9.9.9.9.9.9.9.9.9.9.9.9.9.9.9.9.9.9.9.9.9.9.9.9.9.9.9.9.9.9.9.9.",
"9.9.9.9.9.9.9.9.9.9.9.9.9.9.9.e.e.e.9.9.9.9.9.9.9.9.9.9.9.9.9.9.",
"9.9.9.9.9.9.9.9.9.9.9.9.9.9.w.1.:.1.w.9.9.9.9.9.9.9.9.9.9.9.9.9.",
"9.9.9.9.9.9.9.9.9.9.9.9.9.r.;.f $ h =.r.9.9.9.9.9.9.9.9.9.9.9.9.",
"9.9.9.9.9.9.9.9.9.9.9.9.r.&.7 V R N z =.w.9.9.9.9.9.9.9.9.9.9.9.",
"9.9.9.9.9.9.9.9.9.9.9.w.;.7 @ W M m B g 1.e.9.9.9.9.9.9.9.9.9.9.",
"9.9.9.9.9.9.9.9.9.9.e.<.d C _ ` c v U , :.e.9.9.9.9.9.9.9.9.9.9.",
"9.9.9.9.9.9.9.9.9.9.e.1.& E O.} ' | Y 3 3.e.9.9.9.9.9.9.9.9.9.9.",
"9.9.9.9.9.9.9.9.9.9.w.*.- Y O.} } X.Y 2 $.w.9.9.9.9.9.9.9.9.9.9.",
"9.9.9.9.9.9.9.9.9.w.4.: # Q Q [ { ..Q o t 6.w.9.9.9.9.9.9.9.9.9.",
"9.9.9.9.9.9.9.9.9.e.:.% S Q k T  ...Y 1 H 0.9.9.9.9.9.9.9.9.9.9.",
"9.9.9.9.9.9.9.9.9.e.:.> ! o.E { | o.~ X t 6.w.9.9.9.9.9.9.9.9.9.",
"9.9.9.9.9.9.9.9.9.e.1.d Z _ ) K J / A j %.w.9.9.9.9.9.9.9.9.9.9.",
"9.9.9.9.9.9.9.9.9.9.w.-.s y p e i l 8 #.r.9.9.9.9.9.9.9.9.9.9.9.",
"9.9.9.9.9.9.9.9.9.9.q.8.b 9 u r x ^ F q ,.w.9.9.9.9.9.9.9.9.9.9.",
"9.9.9.9.9.9.9.9.9.9.q.7.n a P [ ( ] G 5 ,.e.9.9.9.9.9.9.9.9.9.9.",
"9.9.9.9.9.9.9.9.9.9.e.>.< L +.! I + O ;.w.9.9.9.9.9.9.9.9.9.9.9.",
"9.9.9.9.9.9.9.9.9.9.e.1.0 D G 6 .   ; 6.w.9.9.9.9.9.9.9.9.9.9.9.",
"9.9.9.9.9.9.9.9.9.9.9.w.;.4 w @.= * ;.0.9.9.9.9.9.9.9.9.9.9.9.9.",
"9.9.9.9.9.9.9.9.9.9.9.9.w.,.,.w.5.2.w.9.9.9.9.9.9.9.9.9.9.9.9.9.",
"9.9.9.9.9.9.9.9.9.9.9.9.9.e.e.9.w.w.9.9.9.9.9.9.9.9.9.9.9.9.9.9.",
"9.9.9.9.9.9.9.9.9.9.9.9.9.9.9.9.9.9.9.9.9.9.9.9.9.9.9.9.9.9.9.9.",
"9.9.9.9.9.9.9.9.9.9.9.9.9.9.9.9.9.9.9.9.9.9.9.9.9.9.9.9.9.9.9.9.",
"9.9.9.9.9.9.9.9.9.9.9.9.9.9.9.9.9.9.9.9.9.9.9.9.9.9.9.9.9.9.9.9.",
"9.9.9.9.9.9.9.9.9.9.9.9.9.9.9.9.9.9.9.9.9.9.9.9.9.9.9.9.9.9.9.9.",
"9.9.9.9.9.9.9.9.9.9.9.9.9.9.9.9.9.9.9.9.9.9.9.9.9.9.9.9.9.9.9.9.",
"9.9.9.9.9.9.9.9.9.9.9.9.9.9.9.9.9.9.9.9.9.9.9.9.9.9.9.9.9.9.9.9.",
"9.9.9.9.9.9.9.9.9.9.9.9.9.9.9.9.9.9.9.9.9.9.9.9.9.9.9.9.9.9.9.9."
};
