/* XPM */
static char *result[] = {
/* columns rows colors chars-per-pixel */
"32 32 137 2 ",
"   c #655D8F",
".  c #615590",
"X  c #635D90",
"o  c #665E94",
"O  c #676094",
"+  c #686191",
"@  c #696191",
"#  c #6B6397",
"$  c #6E6898",
"%  c #716796",
"&  c #726796",
"*  c #716897",
"=  c #726D96",
"-  c #776E97",
";  c #706998",
":  c #706999",
">  c #756B98",
",  c #756D98",
"<  c #757098",
"1  c #757099",
"2  c #777199",
"3  c #76719C",
"4  c #797398",
"5  c #797499",
"6  c #7A749F",
"7  c #7A759F",
"8  c #7E779D",
"9  c #7D7899",
"0  c #7C789C",
"q  c #7E799E",
"w  c #7B75A0",
"e  c #7D77A1",
"r  c #7B75A6",
"t  c #7C76A6",
"y  c #7F7AA2",
"u  c #7D78A8",
"i  c #817D96",
"p  c #807B9E",
"a  c #817C9F",
"s  c #817E9F",
"d  c #847EA5",
"f  c #837EA9",
"g  c #847FA8",
"h  c #8F8C9C",
"j  c #8883A7",
"k  c #8A85A4",
"l  c #8A85AA",
"z  c #D9B2AB",
"x  c #DBB5AC",
"c  c #E3BFB0",
"v  c #DFD98C",
"b  c #ECE68F",
"n  c #EDE793",
"m  c #E6C3B3",
"M  c #E1CEBF",
"N  c #E5E2BC",
"B  c #E6E4BD",
"V  c #E6E5BE",
"C  c #E7E6BF",
"Z  c #E8E6BB",
"A  c #EBE9BE",
"S  c #EDECBF",
"D  c #CCC7D0",
"F  c #D1CBD4",
"G  c #D3CDD4",
"H  c #D4CED5",
"J  c #D4CED6",
"K  c #D4CED8",
"L  c #D9D4D9",
"P  c #DCD6DC",
"I  c #DDD7DD",
"U  c #DCD6DF",
"Y  c #DDD8DA",
"T  c #D9D8DE",
"R  c #E3D0C1",
"E  c #EBD9C5",
"W  c #EDDBC6",
"Q  c #E8E6C2",
"!  c #EBE8C0",
"~  c #EAE9C0",
"^  c #E9E8C3",
"/  c #EAE9C2",
"(  c #ECEBC2",
")  c #EEEDC1",
"_  c #EDECC2",
"`  c #EDECC3",
"'  c #EEECC2",
"]  c #EFECC2",
"[  c #EEECC3",
"{  c #EFECC3",
"}  c #EEEDC3",
"|  c #EFEEC3",
" . c #EDECC4",
".. c #EEEDC5",
"X. c #EEEEC4",
"o. c #F0EEC2",
"O. c #F0EDC4",
"+. c #F0EDC5",
"@. c #F0EEC4",
"#. c #F0EFC4",
"$. c #F0EEC6",
"%. c #F2F1C5",
"&. c #F3F2C4",
"*. c #F3F2C5",
"=. c #F1F0C6",
"-. c #F2F0C6",
";. c #F2F1C6",
":. c #F4F1C4",
">. c #F4F3C5",
",. c #F4F3C6",
"<. c #F5F4C5",
"1. c #F7F6C7",
"2. c #F6F4C9",
"3. c #DFDFE3",
"4. c #E0DFE3",
"5. c #E0E0E3",
"6. c #E1E1E4",
"7. c #E1E1E5",
"8. c #E3E3E5",
"9. c #E4E3E6",
"0. c #E4E4E6",
"q. c #E5E5E7",
"w. c #E6E6E7",
"e. c #E6E5E8",
"r. c #E5E6E8",
"t. c #E6E6E8",
"y. c #E7E7E8",
"u. c #E7E7E9",
"i. c #E8E7E9",
"p. c #E8E8E9",
"a. c #FFECECEC",
"s. c #EDEDEC",
"d. c gray93",
"f. c #EDEEED",
"g. c #EEEEED",
"h. c #EEEEEE",
"j. c #EFEFEE",
/* pixels */
"a.a.a.a.a.a.a.a.a.a.a.a.a.a.a.a.a.a.a.a.a.a.a.a.a.a.a.a.a.a.a.a.",
"a.a.a.a.a.a.a.a.a.a.a.a.a.a.a.a.a.a.a.a.a.a.a.a.a.a.a.a.a.a.a.a.",
"a.a.a.a.a.a.a.a.a.a.a.a.a.a.a.a.a.a.a.a.a.a.a.a.a.a.a.a.a.a.a.a.",
"a.a.a.a.a.a.a.a.a.a.a.a.a.a.a.a.a.a.a.a.a.a.a.a.a.a.a.a.a.a.a.a.",
"a.a.a.a.a.a.a.a.a.a.a.a.a.a.a.a.a.a.a.a.a.a.a.a.a.a.a.a.a.a.a.a.",
"a.a.a.a.a.a.a.a.a.a.a.a.g.g.g.a.a.a.a.g.g.g.a.a.a.a.a.a.a.a.a.a.",
"a.a.a.a.a.a.a.a.a.a.a.d.t.q.t.d.a.a.d.t.q.t.d.a.a.a.a.a.a.a.a.a.",
"a.a.a.a.a.a.a.a.a.a.d.8.s = a 8.h.h.8.a = s 8.d.a.a.a.a.a.a.a.a.",
"a.a.a.a.a.a.a.a.a.g.t.p N ] B 0 6.6.0 B ] N p t.g.a.a.a.a.a.a.a.",
"a.a.a.a.a.a.a.a.a.g.r.% x m ' = : : = ' m x % r.g.a.a.a.a.a.a.a.",
"a.a.a.a.a.a.a.a.a.g.r.> z c +.L K K L +.c z > r.g.a.a.a.a.a.a.a.",
"a.a.a.a.a.a.a.a.a.g.u.2 ! :.=.I U U I =.:.! 2 u.g.a.a.a.a.a.a.a.",
"a.a.a.a.a.a.a.a.a.d.3.< _ 1.-.Y P P Y -.1._ < 3.d.a.a.a.a.a.a.a.",
"a.a.a.a.a.a.a.a.d.p.y + _ } %.;.-.-.;.%.} _ + y p.d.a.a.a.a.a.a.",
"a.a.a.a.a.a.a.a.a.s.T 5 V h ( <.&.&.<.( h V 4 T s.a.a.a.a.a.a.a.",
"a.a.a.a.a.a.a.a.d.p.y   [ O.*.,.>.,.,.*.@.{ @ y p.d.a.a.a.a.a.a.",
"a.a.a.a.a.a.a.a.a.d.5.8 R W [ X. .` | [ E M , 3.d.a.a.a.a.a.a.a.",
"a.a.a.a.a.a.a.a.a.a.j.0.* . r u j l u t - & O p.f.a.a.a.a.a.a.a.",
"a.a.a.a.a.a.a.a.a.a.d.9.$ X u d v Z f g ^ D w w.d.a.a.a.a.a.a.a.",
"a.a.a.a.a.a.a.a.a.g.w.e J $./ o.b n ) #.~ k 7.d.a.a.a.a.a.a.a.a.",
"a.a.a.a.a.a.a.a.a.g.w.# G Q i C S A 2...9 4.h.a.a.a.a.a.a.a.a.a.",
"a.a.a.a.a.a.a.a.a.d.y.3 ; 1 o 1 1 q H F 7 i.d.a.a.a.a.a.a.a.a.a.",
"a.a.a.a.a.a.a.a.a.a.a.y.w.e.y.q.t.6.6 6 8.s.a.a.a.a.a.a.a.a.a.a.",
"a.a.a.a.a.a.a.a.a.a.a.d.g.g.d.g.g.d.w.w.d.a.a.a.a.a.a.a.a.a.a.a.",
"a.a.a.a.a.a.a.a.a.a.a.a.a.a.a.a.a.a.g.g.a.a.a.a.a.a.a.a.a.a.a.a.",
"a.a.a.a.a.a.a.a.a.a.a.a.a.a.a.a.a.a.a.a.a.a.a.a.a.a.a.a.a.a.a.a.",
"a.a.a.a.a.a.a.a.a.a.a.a.a.a.a.a.a.a.a.a.a.a.a.a.a.a.a.a.a.a.a.a.",
"a.a.a.a.a.a.a.a.a.a.a.a.a.a.a.a.a.a.a.a.a.a.a.a.a.a.a.a.a.a.a.a.",
"a.a.a.a.a.a.a.a.a.a.a.a.a.a.a.a.a.a.a.a.a.a.a.a.a.a.a.a.a.a.a.a.",
"a.a.a.a.a.a.a.a.a.a.a.a.a.a.a.a.a.a.a.a.a.a.a.a.a.a.a.a.a.a.a.a.",
"a.a.a.a.a.a.a.a.a.a.a.a.a.a.a.a.a.a.a.a.a.a.a.a.a.a.a.a.a.a.a.a.",
"a.a.a.a.a.a.a.a.a.a.a.a.a.a.a.a.a.a.a.a.a.a.a.a.a.a.a.a.a.a.a.a."
};
