/* XPM */
static char *_93f2e0338ce453be1015b3f0f32774aEl0zYgTOlcQIsyOh[] = {
/* columns rows colors chars-per-pixel */
"32 32 91 1 ",
"  c #000000",
". c #0A0600",
"X c #0D0A01",
"o c #0E0E0B",
"O c #110F09",
"+ c #171100",
"@ c #191403",
"# c #12110D",
"$ c #FF141513",
"% c #1B1514",
"& c #1E1B11",
"* c #151718",
"= c #171A1C",
"- c #1C1A1D",
"; c #211516",
": c #241817",
"> c #231C1B",
", c #2A1F1C",
"< c #24201E",
"1 c #2C211D",
"2 c #31261E",
"3 c #32281F",
"4 c #1B1E21",
"5 c #1D2124",
"6 c #1E2228",
"7 c #262120",
"8 c #2D2320",
"9 c #23262A",
"0 c #25282C",
"q c #282A2C",
"w c #312622",
"e c #352B22",
"r c #3B2E24",
"t c #3D3225",
"y c #272A30",
"u c #2A2E34",
"i c #282E3A",
"p c #2C3137",
"a c #2F353E",
"s c #343434",
"d c #30363F",
"f c #413327",
"g c #433628",
"h c #463929",
"j c #4C3D2C",
"k c #503F2E",
"l c #51412F",
"z c #2D3542",
"x c #303640",
"c c #343B45",
"v c #363E49",
"b c #39414D",
"n c #374152",
"m c #3D4654",
"M c #3E4856",
"N c #424C5C",
"B c #465163",
"V c #4A5566",
"C c #4D596B",
"Z c #4F5C6E",
"A c #505D6F",
"S c #4E5C73",
"D c #4F5E75",
"F c #515D70",
"G c #556175",
"H c #516078",
"J c #54637B",
"K c #55647D",
"L c #59677B",
"P c #58677F",
"I c #5A687C",
"U c #576780",
"Y c #586780",
"T c #5D6B80",
"R c #5F6D82",
"E c #5B6A84",
"W c #5C6C86",
"Q c #5E6E88",
"! c #60728D",
"~ c #647693",
"^ c #687B99",
"/ c #6B7E9D",
"( c #7286A7",
") c #7388A9",
"_ c #778CAE",
"` c #788DB0",
"' c #7A90B3",
"] c #7D94B9",
"[ c #829ABF",
"{ c #A9A9A9",
"} c #869EC5",
/* pixels */
"$$$$$-. *6N^(((((((^N6* .-$$$$$$",
"$$$*= nD/[]_(((((((_][/Dn =*$$$$",
"$$=# S]}`~Sc&@+++@&cS~`}]S #=$$$",
"-5XiH)'Paq>0u06660u0>qaP')HiX6**",
"9.m!^Yv0095*#######*5900vY^!mX6-",
" xW/Jpu9*#%%>,:%:,>%%#*9upJ/Wx  ",
"K!/Yc04o%,w,,w1:1w,,w,%#40cY/!KU",
"QEWB@=$%1ww,1e1;1e1,ww1%$=@BWEQQ",
"vvbd=%>:1rr12fe,ef21rr1:>%=dbvvv",
"yyu6O,w,1ee,rlf1flr,ee1,w,O6uyyy",
"p9$$:ww,2tt1rlf1flr1tt2,ww:$$9pp",
"bp==1ee,rjjttlf1flttjjr,ee1==pbv",
"GmX-3tt1rllttlf1flttllr1rr2>XmGF",
"RN.-rjjrrlkttlf1flttklrrjjr-.NRI",
"TN.-rllftklttlf1flttlktfllt-.NTL",
"RN.-rlkttkkttlf1flttkkttklr-.NRI",
"LNX-rlktfllftlf1fltfllftklr-XNLG",
"Cb#-tllfrhhrtlg1gltrhhrfllt-#bCV",
"Zb#-rjjtrhhrtjf1fjtrhhrtjjr-#bZC",
"AnO-ehhretterht8thretterhhe-OnAC",
"ma*-ehgretterhr8rhretterghe-*amn",
"Ma*-2tteetteeteweteetteett2-*aMm",
"ma*-2tteetteete8eteetteett2-*amm",
"ma*-2tteetteete8eteetteett2-*amm",
"ma*-2tteetteete8eteetteett2-*amm",
"ma*-2tteetteete8eteetteett2-*amm",
"ma*-2tt23tt32tewet23tt32tt2-*amm",
"ma*-1ww,1rr12te,et21rr1,ww1-*amm",
"Nx*-1ww,,ww,1e1;1e1,ww,,ww1-*xNm",
"vu*>1ww11we7<w7=7w<7ew11ww1>*uvz",
"$=--><<--<<--<-=-<--<<--<<>--=os",
"**$$$$$$$$$$$$$$$$$$$$$$$$$$$q {"
};
