/* XPM */
static char *fe53bdffd99446aeb89ad72290ffb5e85N9f6NRKKAVvonCA[] = {
/* columns rows colors chars-per-pixel */
"32 32 14 1 ",
"  c #AFC371",
". c #B0C472",
"X c #C1D17B",
"o c #C3D27C",
"O c #C4D37D",
"+ c #C5D47F",
"@ c #C6D581",
"# c #C8D583",
"$ c #C8D684",
"% c #CBD889",
"& c #E2E8A7",
"* c #E2E8A8",
"= c #E4E9AA",
"- c #E6EBAD",
/* pixels */
"OOOOOOOOOOOOOOOOOOOOOOOOOOOOOOOO",
"OOOOOOOOOOOOOOOOOOOOOOOOOOOOOOOO",
"OOOOOOOOOOOoOOOOOOOOOOOOoOoOOOOO",
"OOOOOOOOOOo.oOOOOOOOOOOo.X.oOOOO",
"OOOOOOOOOo XOOOOOOOOOOOOX.XOOOOO",
"OOOoOOOOOo oOOOOOOOOOOOOOoOOOOOO",
"OOo.oOOOOOoOOOOOOOOOOOOOOOOOOOOO",
"OOOX oOOOoOOOOOOOOOOOOOOOOOOOOOO",
"OOOo oOOo.oOOOOOOOOOOOOOOOOOOOOO",
"OOOOoOOo XOOOOOOOOoOoOOOOOOOOOOO",
"OOOOOOOo oOOOOOOOo.X.oOOOOOOOOOO",
"OOOOOOOOoOOOOOOOOOX.XOOOOOOOOOOO",
"OOOOOOOOOOOOOOOOOOOoOOOOOOOOOOOO",
"OOOOOOOOOOOOOOOOOOOOOOOOOOOOOOOO",
"OOOOOOOOOOOOOOOOOOOOOOOOOOOOOOOO",
"OOOOOOOOOOOOOOOOOOOOOOOOOOOOOOOO",
"OOOOOOOOOOOOOOOOOOOOOOOOOOOOOOOO",
"OOOOOOOOOOOOOOOOOOOOOOOOOOoOoOOO",
"OOOOOOOOOOOOOOOOOOOOOOOOOO@O@OOO",
"OOOOOOoOOOOOOOOOOOOOOOOOo@&%&@oO",
"OOOOOO@OOOOOOOOOOOOOOOOOOo$*$oOO",
"OOoOo$*@oOOOOOOOOOOOOOOOOOo@oOOO",
"OO@X@=$oOOOOOOOOOOOOOOOOOOOoOOOO",
"o@*#@-@oOoOOOOOOOOOOOOOOOOOOOOOO",
"Oo$*$*@oO@OOOOOOOOOoOoOOOOOOOOOO",
"Oo@-@+Oo@*$oOOOOOOO@O@OOOOOOOOOO",
"Oo@=@XOOo$=@oOOOOo@&%&@oOOOOOOOO",
"OOO@OOOOo@-@oOOOOOo$*$oOOOOOOOOO",
"OOOoOOOOo@=@oOOOOOOo@oOOOOOOOOOO",
"OOOOOOOOOO@OOOOOOOOOoOOOOOOOOOOO",
"OOOOOOOOOOoOOOOOOOOOOOOOOOOOOOOO",
"OOOOOOOOOOOOOOOOOOOOOOOOOOOOOOOO"
};
