/* XPM */
static char *_7eb43d699b541cee60e974c81424775toJ1HnNKvFh3cWpT[] = {
/* columns rows colors chars-per-pixel */
"32 32 67 1 ",
"  c #645C8F",
". c #686191",
"X c #716796",
"o c #716A92",
"O c #736995",
"+ c #726D96",
"@ c #706999",
"# c #756B98",
"$ c #757098",
"% c #797499",
"& c #79739E",
"* c #7C739C",
"= c #7A749F",
"- c #7C779C",
"; c #7C789C",
": c #7C76A1",
"> c #7C77A7",
", c #7F7AA2",
"< c #7D78A7",
"1 c #7D78A8",
"2 c #807B9E",
"3 c #817C9F",
"4 c #817BA5",
"5 c #837FA8",
"6 c #847FA9",
"7 c #8F8C9C",
"8 c #8883A7",
"9 c #8A85AA",
"0 c #D9B2AB",
"q c #DBB5AC",
"w c #E3BFB0",
"e c #E0D98C",
"r c #ECE68F",
"t c #EDE793",
"y c #E6C3B3",
"u c #E5E2BC",
"i c #E6E4BD",
"p c #E8E6BB",
"a c #EBEABE",
"s c #D1CBD4",
"d c #D2CCD4",
"f c #D4CED6",
"g c #D4CED8",
"h c #D9D4D9",
"j c #DDD7DD",
"k c #DDD8DA",
"l c #D9D8DE",
"z c #E2CFC0",
"x c #EBD9C5",
"c c #EBE8C0",
"v c #ECEBC2",
"b c #EFECC2",
"n c #EAE9C4",
"m c #EFEEC4",
"M c #F0EDC5",
"N c #F1F0C6",
"B c #F4F1C4",
"V c #F7F6C7",
"C c #F5F4C8",
"Z c #DFDFE3",
"A c #E0E0E3",
"S c #E3E3E5",
"D c #E4E3E5",
"F c #E5E5E7",
"G c #E6E6E8",
"H c #E8E8E9",
"J c #FFECECEC",
/* pixels */
"JJJJJJJJJJJJJJJJJJJJJJJJJJJJJJJJ",
"JJJJJJJJJJJJJJJJJJJJJJJJJJJJJJJJ",
"JJJJJJJJJJJJJJJJJJJJJJJJJJJJJJJJ",
"JJJJJJJJJJJJJJJJJJJJJJJJJJJJJJJJ",
"JJJJJJJJJJJJJJJJJJJJJJJJJJJJJJJJ",
"JJJJJJJJJJJJJJJJJJJJJJJJJJJJJJJJ",
"JJJJJJJJJJJJJJJJJJJJJJJJJJJJJJJJ",
"JJJJJJJJJJJJJJJJJJJJJJJJJJJJJJJJ",
"JJJJJJJJJJJJJJJJJJJJJJJJJJJJJJJJ",
"JJJJJJJJJJJJGFGJJJJGFGJJJJJJJJJJ",
"JJJJJJJJJJJS3+3SJJS3+3SJJJJJJJJJ",
"JJJJJJJJJJG2ubi;SS;ibu2GJJJJJJJJ",
"JJJJJJJJJJGXqyb+@@+byqXGJJJJJJJJ",
"JJJJJJJJJJG#0wMhgghMw0#GJJJJJJJJ",
"JJJJJJJJJJG$cBNjjjjNBc$GJJJJJJJJ",
"JJJJJJJJJJZ$bVNkjjkNVb$ZJJJJJJJJ",
"JJJJJJJJJH,.bbNNNNNNbb.,HJJJJJJJ",
"JJJJJJJJJJl%i7vVNNVv7i%lJJJJJJJJ",
"JJJJJJJJJH, bMNBBBBNMb ,HJJJJJJJ",
"JJJJJJJJJJA2zxbmmbbbxz2AJJJJJJJJ",
"JJJJJJJJJJJZ*O><891>O*ZJJJJJJJJJ",
"JJJJJJJJJJF:fn64ep55nf:FJJJJJJJJ",
"JJJJJJJJJJF&dMbbrtbbMd&FJJJJJJJJ",
"JJJJJJJJJJJD&oMCaaCMo&DJJJJJJJJJ",
"JJJJJJJJJJJJA&sf--fs&AJJJJJJJJJJ",
"JJJJJJJJJJJJJS=&SS&=SJJJJJJJJJJJ",
"JJJJJJJJJJJJJJFFJJFFJJJJJJJJJJJJ",
"JJJJJJJJJJJJJJJJJJJJJJJJJJJJJJJJ",
"JJJJJJJJJJJJJJJJJJJJJJJJJJJJJJJJ",
"JJJJJJJJJJJJJJJJJJJJJJJJJJJJJJJJ",
"JJJJJJJJJJJJJJJJJJJJJJJJJJJJJJJJ",
"JJJJJJJJJJJJJJJJJJJJJJJJJJJJJJJJ"
};
