/* XPM */
static char *_71b648265134d41fc05a15dba95d034J3GduQaEf4l3RMbd[] = {
/* columns rows colors chars-per-pixel */
"32 32 68 1 ",
"  c #655D8F",
". c #645890",
"X c #666091",
"o c #6E6393",
"O c #6F6999",
"+ c #736E97",
"@ c #746E94",
"# c #716A9A",
"$ c #726C9A",
"% c #756E9B",
"& c #767198",
"* c #7A7499",
"= c #7E7599",
"- c #79739F",
"; c #7B769F",
": c #7E779E",
"> c #7670A6",
", c #7B76A6",
"< c #7F7AA2",
"1 c #7D78A8",
"2 c #817C9B",
"3 c #827A9F",
"4 c #817C9F",
"5 c #817DA4",
"6 c #857FA5",
"7 c #8F8C9C",
"8 c #8883A7",
"9 c #8782AA",
"0 c #8985AA",
"q c #D4ACA9",
"w c #DCB7AD",
"e c #E1BEB1",
"r c #E0D98C",
"t c #EAE38D",
"y c #EBE491",
"u c #E5C2B2",
"i c #E2CEBF",
"p c #E5E2BC",
"a c #E7E6BE",
"s c #E8E6BB",
"d c #D1CCD4",
"f c #D4CED6",
"g c #D5CED9",
"h c #D6D0D7",
"j c #DCD6DF",
"k c #DDD8DA",
"l c #DADADF",
"z c #DED8DD",
"x c #EDDBC6",
"c c #ECEBC2",
"v c #EEECC2",
"b c #EDEBC4",
"n c #EDEDC5",
"m c #F2EFC3",
"M c #F0EDC4",
"N c #F4F3C3",
"B c #F3F3C7",
"V c #F4F3C5",
"C c #F6F5C6",
"Z c #F4F3C8",
"A c #DCDCE1",
"S c #E0E0E3",
"D c #E3E3E5",
"F c #E5E5E7",
"G c #E5E5E8",
"H c #E8E7E8",
"J c #E8E8E9",
"K c #FFECECEC",
/* pixels */
"KKKKKKKKKKKKKKKKKKKKKKKKKKKKKKKK",
"KKKKKKKKKKKKKKKKKKKKKKKKKKKKKKKK",
"KKKKKKKKKKKKKKKKKKKKKKKKKKKKKKKK",
"KKKKKKKKKKKKKKKKKKKKKKKKKKKKKKKK",
"KKKKKKKKKKKKKKKKKKKKKKKKKKKKKKKK",
"KKKKKKKKKKKKKKKKKKKKKKKKKKKKKKKK",
"KKKKKKKKKKKKKKKKKKKKKKKKKKKKKKKK",
"KKKKKKKKKKGFGHKKKKKGFGKKKKKKKKKK",
"KKKKKKKKKD4&+$DGFGD4+4DKKKKKKKKK",
"KKKKKKKKG4pva@O%%#2avp4GKKKKKKKK",
"KKKKKKKKGowuBnhgghcBuwoGKKKKKKKK",
"KKKKKKKKG3qemBzjjzZmeq3GKKKKKKKK",
"KKKKKKKKKl=cCBkjjkBCc=lKKKKKKKKK",
"KKKKKKKKJ5XvvBBBBBBvvX5JKKKKKKKK",
"KKKKKKKKKl*a7cCBBCc7a*lKKKKKKKKK",
"KKKKKKKKJ< vMBVVVVBMv <JKKKKKKKK",
"KKKKKKKKKS:ixnnnvvnxi:SKKKKKKKKK",
"KKKKKKKKKKD3.,1801,.3DKKKKKKKKKK",
"KKKKKKKKKKKAO>6rs9>OAKKKKKKKKKKK",
"KKKKKKKKKKF<fnvtyvnf<FKKKKKKKKKK",
"KKKKKKKKKKF-fVCNNCVf-FKKKKKKKKKK",
"KKKKKKKKKKKD*bZccZb*DKKKKKKKKKKK",
"KKKKKKKKKKKG;df==fd;GKKKKKKKKKKK",
"KKKKKKKKKKKKD;-DD-;DKKKKKKKKKKKK",
"KKKKKKKKKKKKKFFKKFFKKKKKKKKKKKKK",
"KKKKKKKKKKKKKKKKKKKKKKKKKKKKKKKK",
"KKKKKKKKKKKKKKKKKKKKKKKKKKKKKKKK",
"KKKKKKKKKKKKKKKKKKKKKKKKKKKKKKKK",
"KKKKKKKKKKKKKKKKKKKKKKKKKKKKKKKK",
"KKKKKKKKKKKKKKKKKKKKKKKKKKKKKKKK",
"KKKKKKKKKKKKKKKKKKKKKKKKKKKKKKKK",
"KKKKKKKKKKKKKKKKKKKKKKKKKKKKKKKK"
};
