/* XPM */
static char *_239feefca6f4c84b2f2113c04bdc206n2nojYf6X4UJ8SUE[] = {
/* columns rows colors chars-per-pixel */
"32 32 129 2 ",
"   c #9B6400",
".  c #9E6920",
"X  c #97673B",
"o  c #99683B",
"O  c #996A3F",
"+  c #A2733F",
"@  c #996A43",
"#  c #9B6D46",
"$  c #9B6D48",
"%  c #9C704B",
"&  c #9E7453",
"*  c #9F7554",
"=  c #9F775C",
"-  c #9F785C",
";  c #A37543",
":  c #A37646",
">  c #A47747",
",  c #A67842",
"<  c #A77B4A",
"1  c #A77C4B",
"2  c #A5794C",
"3  c #A67B50",
"4  c #A87E50",
"5  c #A07758",
"6  c #A1795A",
"7  c #A57D5A",
"8  c #A0785C",
"9  c #A27B5E",
"0  c #A37D62",
"q  c #A9825E",
"w  c #AC865E",
"e  c #A78262",
"r  c #A88260",
"t  c #AB8461",
"y  c #AD8760",
"u  c #AB8766",
"i  c #AC8766",
"p  c #AE8966",
"a  c #AF8B68",
"s  c #AF8C68",
"d  c #B08C69",
"f  c #B08D6C",
"g  c #B3906B",
"h  c #B4906B",
"j  c #B5926D",
"k  c #B7946E",
"l  c #B9956B",
"z  c #BA976D",
"x  c #BB986F",
"c  c #A98771",
"v  c #AD8F7C",
"b  c #AE917E",
"n  c #B39274",
"m  c #BD9B72",
"M  c #BD9C73",
"N  c #BF9E74",
"B  c #B5967A",
"V  c #B3967D",
"C  c #B6987E",
"Z  c #C09E74",
"A  c #C3A57D",
"S  c #C4A67E",
"D  c #B69981",
"F  c #B59984",
"G  c #B89C83",
"H  c #BA9E87",
"J  c #B49B8C",
"K  c #BCA38D",
"L  c #B7A092",
"P  c #B8A193",
"I  c #B9A396",
"U  c #BFA897",
"Y  c #BAA598",
"T  c #C4A986",
"R  c #C8AD87",
"E  c #CAAF8B",
"W  c #C9AF8D",
"Q  c #CAB18D",
"!  c #C1AB9A",
"~  c #C2AC9B",
"^  c #D1B993",
"/  c #D0B995",
"(  c #C0AEA4",
")  c #C6B3A3",
"_  c #C6B4A7",
"`  c #CEBAA3",
"'  c #C8B6A8",
"]  c #CFBDAA",
"[  c #CBBBAD",
"{  c #CCBCAF",
"}  c #C7B9B0",
"|  c #CCBDB0",
" . c #DCC6A1",
".. c #DDC8A3",
"X. c #DFCAA5",
"o. c #CFC1B6",
"O. c #D1C5BD",
"+. c #E0CCA7",
"@. c #E2CEA9",
"#. c #E3D0AB",
"$. c #E5D2AD",
"%. c #E7D4AF",
"&. c #E7D5B0",
"*. c #E8D6B1",
"=. c #E9D8B3",
"-. c #EAD9B4",
";. c #D3C8C0",
":. c #D4C9C0",
">. c #D6CCC5",
",. c #D8CFC8",
"<. c #D7D0CB",
"1. c #D9D1CA",
"2. c #D8D1CC",
"3. c #DBD5D2",
"4. c #DDD6D1",
"5. c #E0DBD9",
"6. c #E1DDDA",
"7. c #E4E2E1",
"8. c gray92",
"9. c #ECEBEB",
"0. c #ECECEB",
"q. c #FFECECEC",
"w. c #EEEFF0",
"e. c #EFF0F1",
"r. c #F0F2F3",
"t. c #F1F4F5",
"y. c #F3F6F8",
"u. c #F4F7FA",
"i. c #F5F9FB",
/* pixels */
"q.q.q.q.q.q.q.q.q.q.q.q.6.# 9 9 9 9 9 9 O 2.w.q.q.q.q.q.q.q.q.q.",
"q.q.q.q.q.q.q.q.q.q.q.q.6.# 9 9 9 9 9 9 O 2.w.q.q.q.q.q.q.q.q.q.",
"q.q.q.q.q.q.q.q.q.q.q.q.6.# 9 9 9 9 9 9 O 2.w.q.q.q.q.q.q.q.q.q.",
"q.q.q.q.q.q.q.q.q.q.q.q.6.# 9 9 9 9 9 9 O 2.w.q.q.q.q.q.q.q.q.q.",
"q.q.q.q.q.q.q.q.8.8.8.q.5.# 9 9 9 9 9 9 @ <.q.8.8.8.q.q.q.q.q.q.",
"q.q.q.q.q.q.q.0.q.r.r.t.7.@ 9 9 9 9 9 9 X 3.t.r.r.w.9.q.q.q.q.q.",
"q.q.q.q.8.8.8.q.4.' [ { ) q u u u u u u q ~ | [ ' ,.q.8.8.8.q.q.",
"q.q.q.9.e.r.r.u.O.  > : 2 t t t t t t t t 3 : > . _ i.r.r.e.q.q.",
"q.q.q.q.1.O.O.;.] E Q Q Q W W W W W W W W Q Q Q Q ` ;.O.O.>.q.q.",
"q.q.q.r.K , 4 ; R -.%.%.%.%.%.%.%.%.%.%.%.%.%.%.=.^ + 4 1 n e.q.",
"q.q.q.r.! p f i W $.@.@.@.@.@.@.@.@.@.@.@.@.@.@.$./ u f s H w.q.",
"q.q.q.r.! y s t Q *.$.$.$.#.#.#.#.#.#.#.#.$.$.$.&./ r s p G w.q.",
"q.q.q.r.U q p r T X. . ...#.#.#.#.#.#.#.#.X. . .X.Q q p t D w.q.",
"q.q.q.r.P & 9 - p m x z A %.$.$.$.$.$.$.&.R l x m d = 9 6 v e.q.",
"q.q.q.r.P * 9 9 a N M m S @.+.+.+.+.+.+.@.R m M N g 9 9 6 b e.q.",
"q.q.q.r.P * 9 9 a M m m m M M M M M M M M m m m M g - 9 6 b e.q.",
"q.q.q.r.P * 9 9 a M m m m m m m m m m m m m m m M g - 9 6 v e.q.",
"q.q.q.r.P * 9 9 a M m m m m m m m m m m m m m m M g - 9 6 b e.q.",
"q.q.q.r.P * 9 9 a M m m m m m m m m m m m m m m M g - 9 6 v e.q.",
"q.q.q.r.P * 9 9 a M m m m m m m m m m m m m m m M g - 9 6 b e.q.",
"q.q.q.r.P * 9 9 a M m m m m m m m m m m m m m m M g - 9 6 v e.q.",
"q.q.q.r.P * 9 9 a M m m m m m m m m m m m m m m M d - 9 6 b e.q.",
"q.q.q.r.P * 9 9 d Z M M M m m m m m m m m M M M N h - 9 6 b e.q.",
"q.q.q.r.P * 9 9 u k j j k m m m m m m m m z j j k p 9 9 6 b e.q.",
"q.q.q.r.P * 9 9 e a p p d M M M M M M M N g p p a u 9 9 6 v e.q.",
"q.q.q.r.I 5 0 0 u d a a d z z z z z z z z d a a d u 0 0 9 b e.q.",
"q.q.q.r.J o % $ 7 d a a a p p p p p p p p a a a d q # % # c e.q.",
"q.q.q.e.} L I Y F p d d d d d d d d d d d d d d p V Y I I ( q.q.",
"q.q.q.9.e.r.e.y.:., w w w w w w w w w w w w w w < [ u.e.r.e.q.q.",
"q.q.q.q.8.8.8.w.>.B H H H H H H H H H H H H H H C o.e.8.8.8.q.q.",
"q.q.q.q.q.q.q.q.q.q.q.q.q.q.q.q.q.q.q.q.q.q.q.q.q.q.q.q.q.q.q.q.",
"q.q.q.q.q.q.q.q.q.q.q.q.q.q.q.q.q.q.q.q.q.q.q.q.q.q.q.q.q.q.q.q."
};
