/* XPM */
static char *_0afb7689e704ea79d73470adb4291f8Yd3ni2x819MQpxiw[] = {
/* columns rows colors chars-per-pixel */
"32 32 85 1 ",
"  c #9A6A3E",
". c #996A44",
"X c #9B6E49",
"o c #9D714D",
"O c #9D7353",
"+ c #9F775C",
"@ c #9F785C",
"# c #A37645",
"$ c #A47748",
"% c #A67A4D",
"& c #A67C53",
"* c #A97E51",
"= c #A17A5D",
"- c #A27D61",
"; c #AA8054",
": c #B48C5A",
"> c #B7905C",
", c #B8925F",
"< c #A78162",
"1 c #AB8665",
"2 c #AD8966",
"3 c #AE8B69",
"4 c #B18C62",
"5 c #B08D6A",
"6 c #B99263",
"7 c #B4916C",
"8 c #B8946A",
"9 c #BC996F",
"0 c #B59472",
"q c #BD9C73",
"w c #BFA17F",
"e c #C09F77",
"r c #C1A077",
"t c #C0A078",
"y c #BEA99D",
"u c #C0A381",
"i c #C4A987",
"p c #C9AC85",
"a c #C6AB89",
"s c #CDB28B",
"d c #C1AD9E",
"f c #CFB690",
"g c #D1B792",
"h c #D6BF99",
"j c #C2AEA0",
"k c #C7B9B0",
"l c #C8B9B1",
"z c #D8C29C",
"x c #DCC7A2",
"c c #DEC9A4",
"v c #CFC4BE",
"b c #D3C4B6",
"n c #D1C4BB",
"m c #D3C8BF",
"M c #E2CFAA",
"N c #E4D1AC",
"B c #E7D5B0",
"V c #E9D7B2",
"C c #D1C7C1",
"Z c #D5CBC3",
"A c #D7CDC4",
"S c #D7CFCA",
"D c #D8CFC8",
"F c #D9D1CB",
"G c #D9D2CE",
"H c #DCD5CF",
"J c #DBD5D2",
"K c #DCD5D0",
"L c #DDD7D4",
"P c #DFD9D5",
"I c #E0DAD4",
"U c #E1DCD9",
"Y c #E1DEDC",
"T c #E5E2E1",
"R c gray92",
"E c #ECEBEB",
"W c #ECECEB",
"Q c #FFECECEC",
"! c #EEEFF0",
"~ c #EEF0F1",
"^ c #F0F1F2",
"/ c #F1F3F5",
"( c #F3F5F7",
") c #F3F6F8",
"_ c #F4F7F8",
/* pixels */
"QQQQQQQQQR~F;55355;A~RQQQQQQQQQQ",
"QQQQQQQQQQ/F%32223%S/QWQQQQQQQQQ",
"QQQQQQQQQRRA4000004ZRRQQQQQQQQQQ",
"QQQQQQQW~K$iBNNNNNBa#G^EQQQQQQQQ",
"QQQQQQQW~K%iNMNNNMNa%G^EQQQQQQQQ",
"QQQQQQQW~K%iNMNNNMNa%G^EQQQQQQQQ",
"RRRRRRRR~H%iNMNNNMNa%G~RRRRRRRRR",
"~~~~~~~!(P%aVNMNMNVa$K(!~~~~~~~~",
"IIIIIIIIUn&wxcNNNcxu&nUIIIIIIIII",
",,,,,,6:*&+16sNMNs61+&*:6,,,,,,,",
"eeeeeerq53@29fVNVg93+35qreeeeeee",
"777777751<@29pzhzp92@<1577777777",
"----------=1q98889q2=-----------",
"         X=1qqqqqqq2=o          ",
"kkkkkkkklyO2qqqqqqq3Oylkkkkkkkkk",
"^^^^^^^^_L.3qqqqqqq3.J_^^^^^^^^^",
"~~~~~~~~)L.3qqqqqqq3.J_~~~~~~~~~",
"bbbbbbbbbjO2qqqqqqq3Odbbbbbbbbbb",
">>>>>>,:%&=1qqqqqqq2@&%:,>>>>>>>",
"tttttttq73+2qqqqqqq2+37qtttttttt",
"11111121<-=2qqqqqqq2@-<121211111",
"===========1qqqqqqq2============",
"===========2eqqqqqe2============",
"===========<78qqq87<============",
"----------=<27qqq72<=-----------",
"oooooooooO=<37qqq73<=Ooooooooooo",
"YYYYUYUUTCo<5555555<XvTUUYUYYYUY",
"!!!!!!!Q(JX<52232251.G(Q!!!!!!!!",
"RRRRRRRR~G.<5333335< S~RRRRRRRRR",
"QQQQQQQQQRRZ;53335;mRRQQQQQQQQQQ",
"QQQQQQQQQQ/F;53235*D(QWQQQQQQQQQ",
"QQQQQQQQQR~F;53335;A~RQQQQQQQQQQ"
};
