/* XPM */
static char *_fa2debf1d92496bdab2a33497b35d86xJbpoolBfZzuJQ4T[] = {
/* columns rows colors chars-per-pixel */
"32 32 110 2 ",
"   c #986738",
".  c #99683B",
"X  c #99693D",
"o  c #9B6D46",
"O  c #9C6E48",
"+  c #9D714D",
"@  c #9E7352",
"#  c #9F7452",
"$  c #9F785C",
"%  c #A67B4C",
"&  c #A77D4F",
"*  c #A87D4C",
"=  c #A77D50",
"-  c #A77D55",
";  c #A97F51",
":  c #A1785A",
">  c #A0785C",
",  c #A27C5E",
"<  c #A47D5D",
"1  c #A17B62",
"2  c #A37D63",
"3  c #A57F61",
"4  c #AA8050",
"5  c #AA8156",
"6  c #B38A58",
"7  c #B38C5B",
"8  c #B7905C",
"9  c #B8915F",
"0  c #A78162",
"q  c #A88363",
"w  c #AC8560",
"e  c #A98464",
"r  c #AC8664",
"t  c #AD8863",
"y  c #AD8967",
"u  c #AD8968",
"i  c #AF8C69",
"p  c #B18B61",
"a  c #B18D69",
"s  c #B08D6C",
"d  c #B99360",
"f  c #B3906B",
"g  c #B4916B",
"h  c #B2906E",
"j  c #B5916C",
"k  c #B8946A",
"l  c #B9956B",
"z  c #BB986F",
"x  c #BC986E",
"c  c #B59471",
"v  c #B39375",
"b  c #B49477",
"n  c #BB9971",
"m  c #BC9A72",
"M  c #BF9D73",
"N  c #BB9A74",
"B  c #BC9B75",
"V  c #BF9D74",
"C  c #BC9D7B",
"Z  c #B99B7D",
"A  c #BD9F7C",
"S  c #C09F77",
"D  c #C09F78",
"F  c #C1A078",
"G  c #BEABA0",
"H  c #C6A880",
"J  c #D4BC97",
"K  c #D6BF9A",
"L  c #C3B0A2",
"P  c #C7B8B0",
"I  c #C8B9B1",
"U  c #CCBDB2",
"Y  c #CABCB4",
"T  c #D7C09B",
"R  c #D8C19C",
"E  c #DAC49E",
"W  c #DBC5A0",
"Q  c #DDC8A2",
"!  c #DFCAA5",
"~  c #D2C3B5",
"^  c #D4C5B6",
"/  c #D2C6BE",
"(  c #E0CCA7",
")  c #E2CFAA",
"_  c #E3D0AB",
"`  c #E3D1AC",
"'  c #E4D2AD",
"]  c #E6D4AF",
"[  c #E6D5B0",
"{  c #E8D6B1",
"}  c #D3C9C4",
"|  c #DBD4CF",
" . c #DAD4D1",
".. c #DDD7D2",
"X. c #DFDAD7",
"o. c #E0DBD7",
"O. c #E1DCD8",
"+. c #E1DEDC",
"@. c #E6E3E1",
"#. c #E6E4E2",
"$. c #E7E4E3",
"%. c #E9E8E7",
"&. c gray92",
"*. c #FFECECEC",
"=. c #EEEFF0",
"-. c #EEF0F1",
";. c #F0F2F3",
":. c #F2F5F7",
">. c #F3F6F8",
",. c #F4F7F8",
/* pixels */
"*.*.*.*.*.*.*.*.*.*.*.*.*.*.&.-.o.5 s u u u u u u u i y b &.*.*.",
"*.*.*.*.*.*.*.*.*.*.*.*.*.*.*.;.O.& u y y y y y y y y w v *.*.*.",
"*.*.*.*.*.*.*.*.*.*.*.*.*.&.@.&...p b c c c c c c c c j Z #.#.#.",
"*.*.*.*.*.*.*.*.*.*.*.&.-...* r C [ _ ` ' ' ` ' ' ` ` ' ) y y y ",
"*.*.*.*.*.*.*.*.*.*.*.&.-...; u C ] ) _ _ _ _ _ _ _ _ ' ) u u u ",
"*.*.*.*.*.*.*.*.*.*.*.&.-...; u C ] ) _ _ _ _ _ _ _ _ ' ) u u u ",
"&.&.&.&.&.&.&.&.&.&.&.&.=...; y C ' ) ) _ _ _ _ _ _ ) _ ( u y u ",
"-.-.-.-.-.-.-.-.-.-.-.=.:.o.4 u A { ' ' _ _ _ _ _ _ ' ] ) a u a ",
"o.o.o.o.o.o.o.o.o.o.o...O./ - e b Q R W ` _ _ _ _ ) E W R y y y ",
"9 9 9 9 9 9 9 9 9 d 7 = 4 - > > 0 x g F ' ) ) ) _ ! l l l > > > ",
"S S S S S S S S S F N s h u > > q S z H { ' ' ' [ ) m V m , , , ",
"g g g g g g g g g j a e e q > > q V z F R K K K T J m m n > , , ",
"2 1 1 1 2 2 1 2 2 1 2 2 2 2 > > q M m m l l l l l l m m n > > > ",
"X X X X X X X X X X X X . O 2 > q M m m V V V V V M m m n > > > ",
"I I I I I I I I I I I P Y G # > q M m m m m m m m m m m n > > , ",
";.;.;.;.;.;.;.;.;.;.;.-.,.X.X 2 q M m m m m m m m m m m n > > , ",
"-.-.-.-.-.-.-.-.-.-.-.-.>.X.X 2 q M m m m m m m m m m m n > , , ",
"^ ^ ^ ^ ^ ^ ^ ^ ^ ^ ~ U ~ L @ > q M m m m m m m m m m m n > > , ",
"8 8 8 8 8 8 8 8 8 9 6 % * = > > q V m m m m m m m m m m n > , , ",
"F F F F F F F F D F B s h u > > q V m m m m m m m m m m n > , , ",
"y y r r r r r r r y e 0 0 3 > > q M m m m m m m m m m m n > > > ",
"> > > > > > > > > $ > > > > > > q M m m m m m m m M m m n > > , ",
", , , , , , , , , , , , , , > > q S M M m m m m M M M M m > , , ",
", > > > > > > > , > > , , , > > 0 j a j M m m m M m f f a > , , ",
"2 2 2 2 2 2 2 2 2 2 2 2 2 2 > > 3 u y a M m m m m n y y y , , , ",
"+ + + + + + + + + + + + + # , > 3 a y a M M M M M m u u y > , , ",
"O.O.O.O.+.+.O.+.+.O.O.O.@.} o 2 3 a u u a a a a a a u u y > > > ",
"=.=.=.=.=.=.=.=.=.=.=.*.:.X.X 2 3 a u u y y y u u u u u y > > > ",
"&.&.&.&.&.&.&.&.&.&.&.&.-. .  > < a u u u u a a u u u u y : : : ",
"*.*.*.*.*.*.*.*.*.*.*.*.*.&.@.%.| 5 s u u u a a u u u y v #.#.#.",
"*.*.*.*.*.*.*.*.*.*.*.*.*.*.*.;.O.; s u u u u a a a a t b *.*.*.",
"*.*.*.*.*.*.*.*.*.*.*.*.*.*.&.=.o.4 s u u u a a a a a t b &.*.*."
};
