/* XPM */
static char *_5806de00d7d464beb32de71b63077b572cCq0qGjjZDQNaV[] = {
/* columns rows colors chars-per-pixel */
"32 32 137 2 ",
"   c #96622C",
".  c #986739",
"X  c #98673C",
"o  c #996A3F",
"O  c #A27029",
"+  c #A17035",
"@  c #A47437",
"#  c #9A6A40",
"$  c #9B6D46",
"%  c #9D7353",
"&  c #9E7453",
"*  c #9F7554",
"=  c #9F775C",
"-  c #9F785C",
";  c #A37440",
":  c #A4784B",
">  c #A57A4D",
",  c #A87D4C",
"<  c #A47B55",
"1  c #A77E56",
"2  c #A97F52",
"3  c #A87F57",
"4  c #A07759",
"5  c #A1785A",
"6  c #A67E5A",
"7  c #A27B5E",
"8  c #A67F5F",
"9  c #A37E63",
"0  c #A47E63",
"q  c #A98052",
"w  c #A98054",
"e  c #AA8258",
"r  c #A88262",
"t  c #AB8561",
"y  c #AD8760",
"u  c #A98566",
"i  c #AC8665",
"p  c #AD8863",
"a  c #AD8866",
"s  c #A7846B",
"d  c #AF8B68",
"f  c #AF8C68",
"g  c #B08B66",
"h  c #B08C6B",
"j  c #B08E6C",
"k  c #B79267",
"l  c #B3906B",
"z  c #B5926C",
"x  c #B89469",
"c  c #BB976C",
"v  c #AC8E7B",
"b  c #AD8F7C",
"n  c #AF927F",
"m  c #BB9870",
"M  c #BD9B72",
"N  c #BF9D73",
"B  c #BF9E74",
"V  c #B6977B",
"C  c #B3967F",
"Z  c #B7997F",
"A  c #BEA07D",
"S  c #C09E75",
"D  c #C2A37B",
"F  c #C3A47C",
"G  c #B99C83",
"H  c #B99D84",
"J  c #B39988",
"K  c #BA9F88",
"L  c #B7A093",
"P  c #B8A193",
"I  c #BEA591",
"U  c #B9A395",
"Y  c #BDA695",
"T  c #BEA999",
"R  c #C4A784",
"E  c #C6A982",
"W  c #C9AC85",
"Q  c #C9AE88",
"!  c #C9AF8C",
"~  c #CBB28F",
"^  c #C0A996",
"/  c #C1AB99",
"(  c #C1AC9A",
")  c #C1AC9D",
"_  c #CCB69C",
"`  c #CFB99C",
"'  c #D2B993",
"]  c #D2BA94",
"[  c #D5BD97",
"{  c #D3BC98",
"}  c #D5BE98",
"|  c #C3B0A2",
" . c #C7B5A6",
".. c #C8B6A8",
"X. c #C9B8AA",
"o. c #CBBAAE",
"O. c #CBBCAF",
"+. c #CDBEB3",
"@. c #D7C19B",
"#. c #D7C29E",
"$. c #D8C19B",
"%. c #D9C39E",
"&. c #CFC1B7",
"*. c #CDC0BA",
"=. c #CEC2BC",
"-. c #D2C7BF",
";. c #D4C8BF",
":. c #E2CFAA",
">. c #E3D0AB",
",. c #E3D1AC",
"<. c #E5D3AE",
"1. c #E6D4AF",
"2. c #E8D6B1",
"3. c #E9D8B2",
"4. c #D0C5C0",
"5. c #D2C8C2",
"6. c #D6CCC5",
"7. c #D6CEC9",
"8. c #D8D1CD",
"9. c #DBD5D2",
"0. c #DCD6D1",
"q. c #E0DBD9",
"w. c #E1DDDA",
"e. c #E4E2E1",
"r. c gray92",
"t. c #ECEBEB",
"y. c #ECECEB",
"u. c #FFECECEC",
"i. c #EEEFF0",
"p. c #EFF0F0",
"a. c #EFF0F1",
"s. c #F0F2F3",
"d. c #F1F3F4",
"f. c #F3F5F7",
"g. c #F3F6F8",
"h. c #F4F7F9",
"j. c #F5F8FA",
/* pixels */
"u.u.u.u.u.u.u.u.u.u.u.u.u.u.u.u.u.u.u.u.u.u.u.u.u.u.u.u.u.u.u.u.",
"u.u.u.u.u.u.u.u.u.u.u.u.u.u.u.u.u.u.u.u.u.u.u.u.u.u.u.u.u.u.u.u.",
"u.u.u.u.r.r.r.i.6.V K K K K K K K K K K K K K K Z &.a.r.r.r.u.u.",
"u.u.u.y.i.a.a.g.-.+ 3 3 3 3 3 3 3 3 3 3 3 3 3 3 ; ..h.a.a.a.u.u.",
"u.u.u.a.+.^ ( / _ %.#.#.#.#.#.#.#.#.#.#.#.#.#.#.%.` T ( /  .u.u.",
"u.u.u.s.I , e > Q 3.<.<.<.<.<.<.<.<.<.<.<.<.<.<.2.] : e w V a.u.",
"u.u.u.s./ p h i ! <.:.:.:.:.:.:.:.:.:.:.:.:.:.:.<.] t h d H i.u.",
"u.u.u.s./ y h t ~ 3.<.1.<.>.>.>.>.>.>.>.>.<.1.<.2.{ t h a G i.u.",
"u.u.u.s.Y 6 t 8 A [ ] ' } ,.:.:.:.:.:.:.<.$.' ] [ R 8 t r C a.u.",
"u.u.u.s.L % 7 = i c x x D 2.<.<.<.<.<.<.2.W k x c g = 7 4 v a.y.",
"u.u.u.s.P * 7 7 h S N M F %.@.@.@.@.@.@.%.E M N B z 7 7 5 n a.y.",
"u.u.u.s.P * 7 7 d N M M M c c c c c c c c M M M N l - 7 5 n a.u.",
"u.u.u.s.P * 7 7 d N M M M N N N N N N N N M M M N l - 7 5 b a.u.",
"u.u.u.s.P * 7 7 d N M M M N N N N N N N N M M M N l - 7 5 n a.u.",
"u.u.u.s.P * 7 7 d N M M M m m m m m m m m M M M N l - 7 5 n a.u.",
"u.u.u.s.P * 7 7 d N M M c 7 7 7 7 7 7 7 7 z N M N l - 7 5 n a.u.",
"u.u.u.s.P * 7 7 d N M M c 7 7 7 7 7 7 7 = z N M N l - 7 5 b a.u.",
"u.u.u.s.P * 7 7 d N M M c 7 7 7 7 7 7 7 - z N M N h - 7 5 n a.u.",
"u.u.u.s.P * 7 7 d B N N c 7 7 7 7 7 7 7 - z N N N l - 7 5 b a.u.",
"u.u.u.s.P * 7 7 u l h h d 7 7 7 7 7 7 7 7 a h h h i 7 7 5 n a.u.",
"u.u.u.s.P * 7 7 r d a d i 7 7 7 7 7 7 7 7 u d a d u 7 7 5 b a.u.",
"u.u.u.s.U 5 0 9 u h d d a 7 7 7 7 7 7 7 7 u h d h u 9 0 9 n a.u.",
"u.u.u.d.J   # X < h d d a 7 7 7 7 7 7 7 7 u f d h 6 . # . s a.u.",
"u.u.u.u.7.*.=.4.) p j j d 7 7 7 7 7 7 7 7 d j j a I 4.=.*.5.u.u.",
"u.u.u.r.s.s.s.j.;.O 2 2 3 7 7 7 7 7 7 7 7 1 q 2 @ X.j.s.s.s.y.u.",
"u.u.u.u.r.r.r.u.0. .o.o.| * 7 7 7 7 7 7 & T O.o...7.u.r.r.r.u.u.",
"u.u.u.u.u.u.u.t.u.s.s.d.e.$ 7 7 7 7 7 7 o 9.f.s.s.i.r.u.u.u.u.u.",
"u.u.u.u.u.u.u.u.r.r.r.u.q.$ 7 7 7 7 7 7 # 7.u.r.r.r.u.u.u.u.u.u.",
"u.u.u.u.u.u.u.u.u.u.u.u.w.$ 7 7 7 7 7 7 o 8.i.u.u.u.u.u.u.u.u.u.",
"u.u.u.u.u.u.u.u.u.u.u.u.w.$ 7 7 7 7 7 7 o 8.i.u.u.u.u.u.u.u.u.u.",
"u.u.u.u.u.u.u.u.u.u.u.u.w.$ 7 7 7 7 7 7 o 8.a.u.u.u.u.u.u.u.u.u.",
"u.u.u.u.u.u.u.u.u.u.u.u.w.$ 7 7 7 7 7 7 o 8.i.u.u.u.u.u.u.u.u.u."
};
