/* XPM */
static char *result[] = {
/* columns rows colors chars-per-pixel */
"32 32 62 1 ",
"  c #99693F",
". c #9B6F4D",
"X c #9C714E",
"o c #9F775B",
"O c #A77C4C",
"+ c #A87E4F",
"@ c #A67C53",
"# c #A07758",
"$ c #A0795C",
"% c #A47D5F",
"& c #A67F61",
"* c #AB8258",
"= c #A78262",
"- c #AA8460",
"; c #AC8766",
": c #AE8863",
"> c #AD8966",
", c #AE8A66",
"< c #AE8A67",
"1 c #AF8B68",
"2 c #B08C69",
"3 c #B18E6D",
"4 c #B5916C",
"5 c #B7946D",
"6 c #BA976D",
"7 c #B9966F",
"8 c #BB986E",
"9 c #B69673",
"0 c #BC9A72",
"q c #BD9B72",
"w c #BE9C72",
"e c #BE9C73",
"r c #BE9D73",
"t c #BF9D73",
"y c #C09F77",
"u c #B8A193",
"i c #C5AA87",
"p c #CDB28C",
"a c #C1AA98",
"s c #D8C19C",
"d c #D8C29E",
"f c #CEC2BC",
"g c #D3C7BE",
"h c #E2CFAA",
"j c #E3D0AB",
"k c #E3D1AC",
"l c #E5D2AE",
"z c #E5D3AE",
"x c #E6D3AF",
"c c #E7D5AF",
"v c #D7CDC6",
"b c #E5E2E1",
"n c #E6E3E1",
"m c #FFECECEC",
"M c #EDEEEE",
"N c #EEEEEF",
"B c #EEEFEF",
"V c #EEEFF0",
"C c #EFF0F0",
"Z c #EFF1F2",
"A c #F0F2F3",
"S c #F1F2F3",
/* pixels */
"mmmmmmmmmmmmmmmmmmmmmmmmmmmmmmmm",
"mmmmmmmmmmmmmmmmmmmmmmmmmmmmmmmm",
"mmmmmmmmmmmmmmmmmmmmmmmmmmmmmmmm",
"mmmmmmmmmmmmmmmmmmmmmmmmmmmmmmmm",
"mmmmmAna+,111111111*3vZMmmmmmmmm",
"mmmmmAna+,111111111*3vZMmmmmmmmm",
"mNVg:@9dcjjjjjjjjjjzhi-OanAmmmmm",
"mNVg:@9dcjjjjjjjjjjzhi-OanAmmmmm",
"mNVg:@9dcjjjjjjjjjjzhi-OanAmmmmm",
"mNVg:@9dcjjjjjjjjjjzhi-OanAmmmmm",
"mBCf#.&5w6phljjkxsy80>o ubSmmmmm",
"mBCf#.&5w6phljjkxsy80>o ubSmmmmm",
"mBCf#.&5tqqqqqqqqqqr0>o ubSmmmmm",
"mBCf#.&5tqqqqqqqqqqr0>o ubSmmmmm",
"mBCf#.&5tqqqqqqqqqqr0>o ubSmmmmm",
"mBCf#.&5tqqqqqqqqqqr0>o ubSmmmmm",
"mBCf#.&5tqqqqqqqqqqr0>o ubSmmmmm",
"mBCf#.&5tqqqqqqqqqqr0>o ubSmmmmm",
"mBCf#.&5tqqqqqqqqqqr0>o ubSmmmmm",
"mBCf#.&5tqqqqqqqqqqr0>o ubSmmmmm",
"mBCf#X%;2<4qwqqqe7211=$ ubSmmmmm",
"mBCf#X%;2<4qwqqqe7211=$ ubSmmmmm",
"mBCf#X%;2111111111121=$ ubSmmmmm",
"mBCf#X%;2111111111121=$ ubSmmmmm",
"mmmmmAna+,111111111*3vZMmmmmmmmm",
"mmmmmAna+,111111111*3vZMmmmmmmmm",
"mmmmmmmmmmmmmmmmmmmmmmmmmmmmmmmm",
"mmmmmmmmmmmmmmmmmmmmmmmmmmmmmmmm",
"mmmmmmmmmmmmmmmmmmmmmmmmmmmmmmmm",
"mmmmmmmmmmmmmmmmmmmmmmmmmmmmmmmm",
"mmmmmmmmmmmmmmmmmmmmmmmmmmmmmmmm",
"mmmmmmmmmmmmmmmmmmmmmmmmmmmmmmmm"
};
