/* XPM */
static char *result[] = {
/* columns rows colors chars-per-pixel */
"32 32 68 1 ",
"  c #976533",
". c #986739",
"X c #9A6A3E",
"o c #9A6C43",
"O c #9D714D",
"+ c #9E7452",
"@ c #9F775C",
"# c #9F785C",
"$ c #A67B4B",
"% c #A97E4E",
"& c #A67D54",
"* c #A97F51",
"= c #A27B5E",
"- c #A37D61",
"; c #AA8051",
": c #B28A57",
"> c #B28A5D",
", c #B7905C",
"< c #B8925F",
"1 c #A78162",
"2 c #AB8665",
"3 c #AD8966",
"4 c #AF8B68",
"5 c #B58E63",
"6 c #B18E6A",
"7 c #B99360",
"8 c #B4916C",
"9 c #B9966C",
"0 c #BC996F",
"q c #B59471",
"w c #BD9B72",
"e c #C09F77",
"r c #C09F78",
"t c #C1A077",
"y c #C0A078",
"u c #BAA394",
"i c #C5A780",
"p c #C7AC89",
"a c #CEB48E",
"s c #CEB592",
"d c #D6BF99",
"f c #C7B8B0",
"g c #C9BBB2",
"h c #D9C39D",
"j c #DBC6A1",
"k c #DEC9A3",
"l c #CEC3BC",
"z c #D4C5B6",
"x c #D2C6BD",
"c c #D3C8BF",
"v c #E0CCA7",
"b c #E2CFAA",
"n c #E4D1AC",
"m c #E7D6B1",
"M c #E8D7B1",
"N c #D1C7C1",
"B c #D4CAC3",
"V c #DDD7D2",
"C c #E1DBD5",
"Z c #E1DEDB",
"A c #E6E4E2",
"S c #E8E6E5",
"D c #FFECECEC",
"F c #EEEFF0",
"G c #EEF0F1",
"H c #F1F2F3",
"J c #F4F7F9",
"K c #F6F9FB",
/* pixels */
"DDS3666362666%zHDDDDDDDDDDDDDDDD",
"DGS2223262226$gHDDDDDDDDDDDDFDDD",
"SSZ9qq9qqqqqq>gDADDDDDDDDDDDDFDD",
"328nnnnnnnnnbMs2$xHDDDDDDDDDDDDD",
"63qnbnbnnbnnbms2%xHDDDDDDDDDDDDD",
"33qnnbbnnbbnbMs2;xHDDDDDDDDDDDDD",
"62qbbnnbbnnbvms2%cHDDDDDDDDDDDDD",
"63qmnnbnnbnbnMs2;BJDDGFGGGGGDGGH",
"226hhjnnnbnvhkp1&gZVCCCCCCCCCCCC",
"==-99ynbbbnd506+-&*&>777<<<<<7<<",
"-=-e0iMnnnMh9e6#=286wrrrteeweett",
"--;wwyhdhdha9e6#=-22666688888888",
"#=1www999999we6@=-----==-==---=-",
"-#=wwwwwwwww0e6@-$.oXooXoXoXXXXo",
"==-wwww0wwwwwe6=+ugfgfgfffggfgff",
"==-wwwwwwwww0w6-.NKFGHHHHFHHHHGG",
"===wwwwwwwwwww4=.NKFGGGGGGFFGGGG",
"==20www0wwwwww6-+uxgzzzzzzzzzzzz",
"==-ewwwwwwwwww6#==%$:<,,,,,<,<7>",
"===0wwwwwwwwww6#=2q6wyryrrrytyyy",
"===wwwwwwwwwww6#=-2=222222232222",
"==;wwwwwwwwwww6=================",
"-=1wwewwwwwwwr6#===-============",
"=#-q68wwwwwq682#==========-=====",
"===636wwwww9342#----------------",
"===446wwwwe9361--+++O+++OOO$OOOO",
"===463666666362-ofAVVZZVZZZZZZVZ",
"=--436433444441-.NJFFFFFGGGFFFFF",
"=#&643444444342- gJDDDDSDDDDFDDD",
"ASV3464444446*fDZDFDFDDDDDDDDDDD",
"DGS3646344446*lHFDDDDDDDDDDDDDDD",
"DDS3344444446%gHSDDDDDDDDDDDDDDD"
};
