/* XPM */
static char *_1c412bdb790467ba91656a41a59134evEMTAWNy8VaIdJxm[] = {
/* columns rows colors chars-per-pixel */
"32 32 92 1 ",
"  c #9D691D",
". c #9F6D2F",
"X c #976431",
"o c #98673C",
"O c #996A3E",
"+ c #A37335",
"@ c #9A6C44",
"# c #9F7554",
"$ c #9F775B",
"% c #9F785C",
"& c #A47643",
"* c #A67945",
"= c #A57A4E",
"- c #A87D4E",
"; c #A67C54",
": c #A97F52",
"> c #A07759",
", c #A27A5D",
"< c #A47E61",
"1 c #A7805C",
"2 c #AA8259",
"3 c #A78160",
"4 c #AB8563",
"5 c #AE8966",
"6 c #A7856D",
"7 c #AF8B68",
"8 c #B18C67",
"9 c #B08D6A",
"0 c #B4916B",
"q c #B9966D",
"w c #BB986F",
"e c #AD8F7C",
"r c #AD907C",
"t c #B39375",
"y c #BD9B72",
"u c #C09E74",
"i c #C3A47C",
"p c #B59880",
"a c #B99D84",
"s c #B39989",
"d c #B89E89",
"f c #BDA38E",
"g c #B7A093",
"h c #BAA393",
"j c #C1A482",
"k c #C8AC85",
"l c #C9AE8B",
"z c #CBB18E",
"x c #C0A895",
"c c #C2AD9B",
"v c #D1B996",
"b c #D2BB98",
"n c #C2B1A7",
"m c #CEBAA2",
"M c #C5B4AB",
"N c #C9B7AA",
"B c #CAB9AD",
"V c #C9BBB3",
"C c #D7C19B",
"Z c #DAC39E",
"A c #DCC7A1",
"S c #DECAA5",
"D c #CFC1B6",
"F c #CFC3BD",
"G c #D3C7BE",
"H c #D3C8BF",
"J c #E2CFAA",
"K c #E3D0AB",
"L c #E4D1AC",
"P c #E4D2AD",
"I c #E6D4AF",
"U c #E7D5B0",
"Y c #E9D7B2",
"T c #E9D8B2",
"R c #EAD9B4",
"E c #D4C9C0",
"W c #D7D0CC",
"Q c #D9D1CB",
"! c #D8D1CD",
"~ c #DAD4D1",
"^ c #E1DDDA",
"/ c #E3E0DF",
"( c gray92",
") c #ECEBEB",
"_ c #ECECEB",
"` c #FFECECEC",
"' c #EEEFF0",
"] c #EFF0F1",
"[ c #F0F2F3",
"{ c #F2F4F5",
"} c #F4F7FA",
"| c #F5F8FA",
/* pixels */
"````````````^@,,,,,,O!'`````````",
"````````````^@,,,,,,O!'`````````",
"````````)((`^@,,,,,,@W`(((``````",
"```````_`]][/@,,,,,,o~{]]`_`````",
"````(((`Qhcch45555554fccxH`(((``",
"```)][[}G ==;44444444;==.N|[[[``",
"```'HNBBmvvvvvvvvvvvvvvvvmBBBD``",
"```[f*:&kRIIIIIIIIIIIIIITv&:-t]`",
"```[c595lPJJJJJJJJJJJJJJPv497a'`",
"```[c494zYPPPKKKKKKKKPPPYb495a'`",
"```[h143jZCCZKJJJJJJPACCZl,44p'`",
"```[g#,$5wqqiUPPPPPPYk0qq8$,>e]`",
"```[g#,,9yyyiSAAAAAASkyyy0,,>r]`",
"```[g#,,7yyyywwwwwwwwyyyy0%,>r]`",
"```[g#,,7yyyyyyyyyyyyyyyy0%,>r]`",
"```[g#,,7yyyyyyyyyyyyyyyy0%,>r]`",
"```[g#,,7yyyyyyyyyyyyyyyy0%,>e]`",
"```[g#,,7yyyq,<<<<<<,0yyy0%,>r]`",
"```[g#,,7yyyq$,,,,,,$0yyy0%,>e]`",
"```[g#,,7yyyq,,,,,,,,0yyy9%,>r]`",
"```[g#,,8uyyq,,,,,,,%0yyy0%,>e]`",
"```[g#,,40009,,,,,,,,50005,,>r]`",
"```[g#,,37555,,,,,,,,47574,,>r]`",
"```[h><<49775,,,,,,,,49794<<,r]`",
"```[sX@@;9775,,,,,,,,47791O@O6]`",
"```]FnMMg5997,,,,,,,,5995dMMnV``",
"```(][[|E+222,,,,,,,,222&B|[[[_`",
"````(((`Qhcch$,,,,,,#dcchG`(((``",
"```````_`]][/@,,,,,,O~{]]`_`````",
"````````)((`^@,,,,,,@W`(((``````",
"````````````^@,,,,,,O!]`````````",
"````````````^@,,,,,,O!'`````````"
};
