/* XPM */
static char *result[] = {
/* columns rows colors chars-per-pixel */
"32 32 136 2 ",
"   c #5A0000",
".  c #610000",
"X  c #713123",
"o  c #6F2C31",
"O  c #755400",
"+  c #785700",
"@  c #795A00",
"#  c #7C5F11",
"$  c #7C6002",
"%  c #7F6318",
"&  c #7D622C",
"*  c #7A4A42",
"=  c #7B4B4D",
"-  c #7D5052",
";  c #7D525B",
":  c #7E6544",
">  c #83692A",
",  c #8A7131",
"<  c #8E773E",
"1  c #835A4E",
"2  c #875D50",
"3  c #80565A",
"4  c #82585C",
"5  c #856D45",
"6  c #83654C",
"7  c #887144",
"8  c #87714A",
"9  c #8B744C",
"0  c #8F794E",
"q  c #8E6E5E",
"w  c #967C5B",
"e  c #927475",
"r  c #9D8845",
"t  c #998348",
"y  c #9F8A49",
"u  c #958054",
"i  c #9E8A56",
"p  c #95815D",
"a  c #99825A",
"s  c #A38E4E",
"d  c #A7924F",
"f  c #AA954E",
"g  c #AD984F",
"h  c #A38F57",
"j  c #A18D58",
"k  c #A59154",
"l  c #AA9552",
"z  c #AE9951",
"x  c #A99659",
"c  c #AD9B5B",
"v  c #B19D56",
"b  c #B29F5A",
"n  c #B5A25B",
"m  c #958364",
"M  c #9B8760",
"N  c #9C8C65",
"B  c #998469",
"V  c #9A8572",
"C  c #9F8C76",
"Z  c #9F9075",
"A  c #A48E61",
"S  c #AC9660",
"D  c #AE9B64",
"F  c #B09E64",
"G  c #A38D7A",
"H  c #AA8F79",
"J  c #A69676",
"K  c #A79A72",
"L  c #AB9D73",
"P  c #AC9A7C",
"I  c #B09D78",
"U  c #B7A561",
"Y  c #B9A760",
"T  c #BCAA62",
"R  c #B9A768",
"E  c #BBAB69",
"W  c #BFB06C",
"Q  c #BBAD7A",
"!  c #C0AE64",
"~  c #C2B164",
"^  c #C3B36B",
"/  c #C9BA6F",
"(  c #CCBC72",
")  c #CFC074",
"_  c #D2C376",
"`  c #D4C578",
"'  c #D9CA7B",
"]  c #AB9681",
"[  c #A69982",
"{  c #A89B86",
"}  c #AA9788",
"|  c #B09988",
" . c #AE9E9C",
".. c #ADA18E",
"X. c #BBAD82",
"o. c #B2A68F",
"O. c #B6AA91",
"+. c #B4A999",
"@. c #B7ADA1",
"#. c #B8AEA1",
"$. c #BBB2A3",
"%. c #BDB5AA",
"&. c #C0B9AE",
"*. c #C5BEB3",
"=. c #D5CEAA",
"-. c #D7D1AA",
";. c #C6C0B7",
":. c #CBC6BE",
">. c #E1CEA9",
",. c #E1D1AB",
"<. c #E8D5AF",
"1. c #E6D7B0",
"2. c #EBD7B2",
"3. c #E9D9B2",
"4. c #ECEABE",
"5. c #CFC9C5",
"6. c #CFC9C8",
"7. c #D1CCCA",
"8. c #D5D1CC",
"9. c #D8D5D2",
"0. c #DCDAD6",
"q. c #DDDADA",
"w. c #E1DFDF",
"e. c #F0EFC2",
"r. c #F3F2C5",
"t. c #F6F5C8",
"y. c #F9F9CB",
"u. c #E6E4E4",
"i. c #E8E7E6",
"p. c #FFECECEC",
"a. c #FFEFEFF0",
"s. c #FFEFF0F0",
"d. c #F1F2F2",
"f. c #F6F7F9",
"g. c #F7F9FB",
"h. c #F8FAFC",
/* pixels */
"p.p.p.p.p.p.p.p.p.p.p.p.p.p.p.p.p.a.p.p.p.p.p.p.p.p.p.p.p.p.p.p.",
"p.p.p.p.p.p.p.p.p.p.p.p.p.p.p.d.d.d.d.p.p.p.p.p.p.p.p.p.p.p.p.p.",
"p.p.p.p.p.p.p.p.p.p.p.p.p.p.i.6.7.7.6.i.p.p.p.p.p.p.p.p.p.p.p.p.",
"p.p.p.p.p.p.p.p.p.p.p.p.p.p.i.* = = X q.p.p.p.p.p.p.p.p.p.p.p.p.",
"p.p.p.p.p.p.p.p.p.p.p.p.a.a.p.= - - o u.d.p.p.p.p.p.p.p.p.p.p.p.",
"p.p.p.p.p.p.p.p.p.p.p.p.w. .@.=.=.=.-.#. .q.a.p.p.p.p.p.p.p.p.p.",
"p.p.p.p.p.p.p.p.a.a.a.d.w.. 1 y.y.y.y.B   7.d.a.a.p.p.p.p.p.p.p.",
"p.p.p.p.p.p.p.p.i.u.u.u.9.q C r.r.r.y.] 2 7.i.u.u.i.p.p.p.p.p.p.",
"p.p.p.p.p.p.p.s.5.p V e } e.e.r.r.r.t.>.>.| e V p &.d.p.p.p.p.p.",
"p.p.p.p.p.p.s.g.:.+ 5 = C y.r.r.r.r.r.1.2.H = 6 $ $.h.d.p.p.p.p.",
"p.p.p.p.p.s.0.8.$.r a 4 G y.r.r.r.r.t.2.2.H 3 w s O.8.9.a.p.p.p.",
"p.p.p.p.p.d.@.@ d ~ D ; G t.r.r.r.r.e.1.<.] ; x ~ l # [ d.p.p.p.",
"p.p.p.p.p.g.$.& h n S ; G t.r.r.r.r.t.1.<.H 3 A T x 5 ..g.d.p.p.",
"p.p.p.d.*.@.X.E ^ _ R 6 J y.r.r.e.r.r.1.<.P 1 F / ^ R Q @.%.a.p.",
"p.p.p.d.[ O T ' _ ` W 5 K y.t.r.r.r.t.3.<.I : U ' ` ' ^ @ m a.p.",
"p.p.p.s...5 R _ ) _ ^ 0 L e.e.4.e.e.e.,.=.Q 0 R _ _ ( ^ 8 Z a.p.",
"p.p.p.f...7 c T ^ _ ) ) W N N N N N N M p E ( ( _ ( ! U 9 Z s.p.",
"p.p.p.s...7 c T / _ ) _ ) : 8 : 5 5 5 8 : ^ ' ` _ / n F 9 C s.p.",
"p.p.p.s...7 x n T ) ) / W i j j j j j j i E / ( ( ^ n z 9 Z s.p.",
"p.p.p.s...7 y f n n T T n T T T T T T E ~ n T n U b f s 9 Z s.p.",
"p.p.p.s.{ % y f n T T T T T T T T T n ! T T T T T n f s > N a.p.",
"p.p.p.s.9.8.o.t k v v v n T T T Y T E n v v v n T c t P 8.8.p.p.",
"p.p.p.p.s.h.$.% t f f f z T T T T T T z g f d n T c & ..h.s.p.p.",
"p.p.p.p.s.s.%.m A f f f l T T n n Y Y l l d d v Y D B +.d.p.p.p.",
"p.p.p.p.p.p.i.p.;., u t u u t u u u u t u u u u < $.i.i.s.p.p.p.",
"p.p.p.p.p.p.s.s.;.O & > & & > & > > & > & > > > + @.f.s.p.p.p.p.",
"p.p.p.p.p.p.p.s.8.O.@.#.$.#.#.#.#.#.#.#.#.#.@.@.+.5.s.p.p.p.p.p.",
"p.p.p.p.p.p.p.p.s.d.s.s.d.d.s.s.d.d.s.s.s.s.s.s.s.s.p.p.p.p.p.p.",
"p.p.p.p.p.p.p.p.p.p.p.p.p.p.p.p.p.p.p.p.p.p.p.p.p.p.p.p.p.p.p.p.",
"p.p.p.p.p.p.p.p.p.p.p.p.p.p.p.p.p.p.p.p.p.p.p.p.p.p.p.p.p.p.p.p.",
"p.p.p.p.p.p.p.p.p.p.p.p.p.p.p.p.p.p.p.p.p.p.p.p.i.p.p.p.p.p.p.p.",
"p.p.p.p.p.p.p.p.p.p.p.p.p.p.p.p.p.p.p.p.p.p.p.p.p.p.p.p.p.p.p.p."
};
