/* XPM */
static char *result[] = {
/* columns rows colors chars-per-pixel */
"32 32 55 1 ",
"  c #826829",
". c #83692A",
"X c #856B2A",
"o c #876F38",
"O c #836B3D",
"+ c #886F38",
"@ c #866E40",
"# c #856F4C",
"$ c #887143",
"% c #8A744E",
"& c #8A7551",
"* c #8F7A51",
"= c #907B52",
"- c #937E52",
"; c #958054",
": c #9A8551",
"> c #988456",
", c #A8934C",
"< c #AB954E",
"1 c #AA954F",
"2 c #A18D58",
"3 c #A99450",
"4 c #AC9750",
"5 c #B19D56",
"6 c #B6A35B",
"7 c #B9A75F",
"8 c #9C8B6E",
"9 c #AA9860",
"0 c #AA9960",
"q c #B7A560",
"w c #BAA760",
"e c #BAA860",
"r c #BBA961",
"t c #BCAA62",
"y c #BDAB62",
"u c #BDAB63",
"i c #BDAC6A",
"p c #C9B96E",
"a c #CBBC72",
"s c #CEBF73",
"d c #D0C175",
"f c #D2C376",
"g c #D2C377",
"h c #D3C477",
"j c #D4C578",
"k c #D5C678",
"l c #B7AEA0",
"z c #B8AEA0",
"x c #D1CDC7",
"c c #E5E4E3",
"v c #FFECECEC",
"b c #EFEFF0",
"n c #F0F1F1",
"m c #F0F1F2",
"M c #F2F2F3",
/* pixels */
"vvvvvvvvvvvvvvvvvvvvvvvvvvvvvvvv",
"vvvvvvvvvvvvvvvvvvvvvvvvvvvvvvvv",
"vvvvvvvvvvvvvvvvvvvvvvvvvvvvvvvv",
"vvvvvvvvvvvvvvvvvvvvvvvvvvvvvvvv",
"vvvvvvvvvvvvvvvvvvvvvvvvvvvvvvvv",
"vvvvvvvvvvvvvvvvvvvvvvvvvvvvvvvv",
"vvvvvvvvbbbbbbbbbbbbbbbbvvvvvvvv",
"vvvvvvvvccccccccccccccccvvvvvvvv",
"vvvvvvvv8888888888888888vvvvvvvv",
"vvvvvvMM@@OOOO@@@@OOOO@@MMvvvvvv",
"vvvvvvxx2200002222000022xxvvvvvv",
"vvvvvvooyyhhhhyyyyhhhhyyoovvvvvv",
"vvvvmm%%eehhggttttgghhee%%mmvvvv",
"vvvvlliipp997755557799ppiillvvvv",
"vvvvXXkkff##,,<<<<,,##ffkkXXvvvv",
"vvvv==ssdd>>33333333>>ddss==vvvv",
"vvvv==uuddaa--------aadduu==vvvv",
"vvvv==rrffjj&&&&&&&&jjffrr==vvvv",
"vvvv==66pppp22222222pppp66==vvvv",
"vvvv**11wwwwyyyyyyyywwww11**vvvv",
"vvvv++44ttttrrrrrrttttrr44++vvvv",
"vvvvxx::5555rrrrrr5555rr::xxvvvv",
"vvvvMM$$<<<<tttttt<<<<tt$$MMvvvv",
"vvvvvv883333qqqqqq3333qq88vvvvvv",
"vvvvvvcc----;;;;;;----;;ccvvvvvv",
"vvvvvvbb....      ....  bbvvvvvv",
"vvvvvvvvzzzzzzzzzzzzzzzzvvvvvvvv",
"vvvvvvvvnnnnnnnnnnnnnnnnvvvvvvvv",
"vvvvvvvvvvvvvvvvvvvvvvvvvvvvvvvv",
"vvvvvvvvvvvvvvvvvvvvvvvvvvvvvvvv",
"vvvvvvvvvvvvvvvvvvvvvvvvvvvvvvvv",
"vvvvvvvvvvvvvvvvvvvvvvvvvvvvvvvv"
};
